<svg width="230" height="230" viewBox="0 0 230 230" fill="none" xmlns="http://www.w3.org/2000/svg">
<path d="M228.92 227H1.08008C0.483568 227 0 227.672 0 228.5C0 229.328 0.483568 230 1.08008 230H228.92C229.516 230 230 229.328 230 228.5C230 227.672 229.516 227 228.92 227Z" fill="#2B468B"/>
<path d="M194.91 32.1328H94.4232V223.281H194.91V32.1328Z" fill="#B0E2E1"/>
<path fill-rule="evenodd" clip-rule="evenodd" d="M87.8428 27.3335H92.6409H194.636H199.434V32.1328V227.395H194.636V32.1328H92.6409V227.395H87.8428V32.1328V27.3335Z" fill="#5A9DAE"/>
<path d="M186.548 117.697C186.548 115.804 185.013 114.269 183.12 114.269C181.228 114.269 179.693 115.804 179.693 117.697V131.409C179.693 133.303 181.228 134.837 183.12 134.837C185.013 134.837 186.548 133.303 186.548 131.409V117.697Z" fill="#5A9DAE"/>
<path d="M94.4232 32.1328V225.338H194.91" stroke="#6BB6BF" stroke-width="5"/>
<path fill-rule="evenodd" clip-rule="evenodd" d="M188.056 38.9889H103.197V86.0631H188.056V38.9889ZM188.056 92.9192H103.197V141.486H188.056V92.9192ZM103.197 216.425V148.343H188.056V216.425H103.197ZM103.197 32.1328H96.3423V38.9889V216.425V223.281H103.197H188.056H194.91V216.425V38.9889V32.1328H188.056H103.197Z" fill="#86D1CD"/>
<path d="M43.932 198.212C36.5233 198.212 30.5215 198.477 30.4849 198.806C30.5215 199.126 36.5233 199.4 43.932 199.4C51.3224 199.4 57.3425 199.135 57.3791 198.806C57.3425 198.469 51.3407 198.212 43.932 198.212ZM44.2335 199.235C38.6792 199.235 34.1847 199.035 34.1847 198.788C34.1847 198.541 38.6883 198.34 44.2335 198.34C49.7785 198.34 54.2822 198.541 54.2822 198.788C54.3004 199.035 49.7877 199.235 44.2335 199.235Z" fill="#E8D4C1"/>
<path d="M43.932 198.212C36.505 198.212 30.4849 198.477 30.4849 198.806C30.4849 199.135 36.505 199.4 43.932 199.4C51.3589 199.4 57.3791 199.135 57.3791 198.806C57.3791 198.477 51.3589 198.212 43.932 198.212ZM44.2335 199.235C38.6792 199.235 34.1847 199.035 34.1847 198.788C34.1847 198.541 38.6883 198.34 44.2335 198.34C49.7785 198.34 54.2822 198.541 54.2822 198.788C54.3004 199.035 49.7877 199.235 44.2335 199.235Z" fill="#E8D4C1"/>
<path d="M44.2334 199.236C49.7832 199.236 54.2822 199.036 54.2822 198.789C54.2822 198.541 49.7832 198.34 44.2334 198.34C38.6837 198.34 34.1847 198.541 34.1847 198.789C34.1847 199.036 38.6837 199.236 44.2334 199.236Z" fill="#BA9C7E"/>
<path d="M51.6237 147.582C48.7461 154.408 46.6998 161.581 45.5305 168.909C44.3612 176.237 44.0507 183.675 44.617 191.077C44.9367 195.215 45.5488 199.345 46.4166 203.403C46.5811 204.133 47.7047 203.832 47.5403 203.101C45.9873 195.918 45.3296 188.581 45.5214 181.245C45.7223 173.943 46.7912 166.652 48.7005 159.598C49.7692 155.614 51.1304 151.703 52.7382 147.902C52.8661 147.619 52.6103 147.263 52.3271 147.189C51.9982 147.08 51.7333 147.299 51.6237 147.582Z" fill="#4C7378"/>
<path d="M51.9984 178.475C49.1208 184.707 47.4125 191.424 46.9467 198.267C46.8187 200.178 46.7821 202.106 46.8552 204.014C46.8918 204.764 48.052 204.764 48.0154 204.014C47.7688 197.335 48.7462 190.656 50.8931 184.333C51.496 182.551 52.1994 180.779 53.0033 179.061C53.323 178.394 52.3181 177.799 51.9984 178.475Z" fill="#4C7378"/>
<path d="M37.3545 149.117C39.1907 155.459 40.497 161.937 41.4654 168.461C42.4337 174.985 43.0549 181.555 43.5573 188.106C43.8405 191.825 44.0963 195.554 44.3247 199.29C44.3796 200.04 45.5398 200.04 45.4849 199.29C45.0556 192.666 44.608 186.024 43.9684 179.417C43.3107 172.828 42.4519 166.231 41.1456 159.735C40.4148 156.052 39.5378 152.416 38.4873 148.807C38.2681 148.085 37.1627 148.386 37.3545 149.117Z" fill="#4C7378"/>
<path d="M30.5579 168.16C32.1475 169.786 33.1249 171.861 33.9837 173.926C34.9337 176.21 35.765 178.549 36.4866 180.924C37.9118 185.621 38.9349 190.446 39.4648 195.317C39.7663 198.048 39.9306 200.799 39.949 203.567C39.949 204.316 41.1092 204.316 41.1092 203.567C41.0726 198.532 40.5519 193.499 39.5927 188.563C38.6243 183.638 37.181 178.777 35.29 174.118C34.3034 171.686 33.2346 169.239 31.3618 167.347C30.8411 166.798 30.019 167.621 30.5579 168.16Z" fill="#4C7378"/>
<path d="M38.5696 191.231C37.7108 190.181 36.642 189.458 35.7468 189.102C34.8516 188.745 34.139 188.745 33.9288 188.974C33.7188 189.203 33.7644 189.907 34.0749 190.756C34.3856 191.606 34.8972 192.63 35.6645 193.58C36.4319 194.531 37.3454 195.224 38.1493 195.691C38.9349 196.157 39.6109 196.349 39.8119 196.229C40.0587 196.065 40.2048 195.371 40.0403 194.429C39.8941 193.479 39.4283 192.282 38.5696 191.231Z" fill="#4C7378"/>
<path d="M42.2509 183.355C42.9635 179.856 42.3058 176.803 41.648 176.676C41.0086 176.566 39.2912 179.16 38.5969 182.605C37.9026 186.051 38.6152 189.139 39.081 189.249C39.6657 189.395 41.5385 186.854 42.2509 183.355Z" fill="#689399"/>
<path d="M39.109 189.221C39.8337 188.484 38.093 185.597 35.2207 182.775C32.3485 179.953 29.4324 178.263 28.7076 179.002C27.9828 179.739 29.7236 182.626 32.5959 185.448C35.4681 188.27 38.3842 189.959 39.109 189.221Z" fill="#4C7378"/>
<path d="M44.4254 193.397C44.7633 191.953 44.946 190.538 45.0191 189.239C45.0922 187.952 45.0557 186.773 44.9278 185.813C44.6994 183.849 44.2334 182.67 43.9137 182.67C43.594 182.67 43.1098 183.812 42.5708 185.621C42.3059 186.518 41.9953 187.586 41.7122 188.746C41.4107 189.925 41.0909 191.195 40.7804 192.548C40.4606 193.891 40.1865 195.188 39.9581 196.367C39.7297 197.546 39.5288 198.652 39.3644 199.584C39.0629 201.438 38.9899 202.69 39.1999 202.799C39.4649 202.927 40.4149 202.069 41.4838 200.425C42.0227 199.602 42.5708 198.569 43.0916 197.39C43.6215 196.193 44.0873 194.841 44.4254 193.397Z" fill="#57848A"/>
<path d="M52.0349 194.858C53.1403 192.895 53.9625 191.002 54.4284 189.541C54.9126 188.079 55.0313 187.056 54.7481 186.864C54.4832 186.68 53.5696 187.201 52.4278 188.253C51.2858 189.321 49.9064 190.967 48.7645 192.985C47.6227 195.023 46.9467 197.06 46.636 198.596C46.4716 199.364 46.4076 200.003 46.4076 200.469C46.4076 200.616 46.3528 200.807 46.4625 201.045C46.4807 201.1 46.5173 201.155 46.5538 201.19C46.5904 201.245 46.6817 201.3 46.7365 201.319C46.8644 201.355 46.9467 201.319 47.0014 201.282C47.111 201.21 47.1841 201.081 47.1476 200.999C47.111 200.908 47.0562 200.944 47.038 200.944C47.0197 200.963 47.0014 200.963 46.9831 200.981C46.9649 200.999 47.0014 200.981 46.9831 200.981C46.9831 200.981 46.9649 200.981 46.9467 200.963C46.9283 200.944 46.9101 200.908 46.9101 200.908C46.9101 200.908 46.9101 200.944 46.9101 200.981C46.9101 200.981 46.9101 200.981 46.9101 200.999L46.9831 200.944C46.9831 200.944 46.9831 200.944 47.0014 200.944C47.038 200.944 47.111 200.926 47.2481 200.963H47.2846H47.3028H47.3212C47.3394 200.963 47.3577 200.963 47.376 200.944C47.7506 200.661 48.1982 200.213 48.7006 199.619C49.7147 198.486 50.9295 196.805 52.0349 194.858Z" fill="#57848A"/>
<path d="M49.0752 185.996C48.792 183.51 48.1616 181.336 47.5405 179.782C46.9193 178.248 46.3072 177.315 45.9691 177.37C45.6494 177.425 45.348 178.475 45.1836 180.121C45.0373 181.765 45.0373 184.014 45.3298 186.408C45.4759 187.623 45.6677 188.746 45.9053 189.778C46.1336 190.811 46.3895 191.706 46.563 192.456C46.764 193.205 46.9009 193.818 47.0288 194.274C47.1385 194.721 47.239 195.023 47.3669 195.042C47.513 195.078 47.7779 194.896 48.0611 194.466C48.3444 194.037 48.655 193.342 48.865 192.484C49.0752 191.606 49.1849 190.593 49.2213 189.505C49.2487 188.445 49.2121 187.248 49.0752 185.996Z" fill="#4C7378"/>
<path d="M33.6273 174.017C32.184 172.628 30.6127 171.659 29.3612 171.102C28.1097 170.544 27.1961 170.426 26.9859 170.691C26.785 170.937 27.1138 171.796 27.8264 172.902C28.539 174.008 29.6444 175.387 31.0238 176.703C32.4124 178.028 33.8648 179.024 35.025 179.682C36.1852 180.34 37.0622 180.632 37.2358 180.467C37.4641 180.267 37.2906 179.362 36.6967 178.128C36.1212 176.923 35.0889 175.405 33.6273 174.017Z" fill="#689399"/>
<path d="M31.4623 164.532C29.7449 161.48 27.2328 159.707 26.6571 160.064C26.1 160.402 26.5292 163.408 28.1918 166.368C29.8545 169.329 32.3302 171.175 32.7778 170.955C33.3259 170.673 33.1797 167.583 31.4623 164.532Z" fill="#4C7378"/>
<path d="M37.8388 170.371C37.5374 168.297 36.8066 166.496 36.0574 165.318C35.3083 164.121 34.5775 163.518 34.276 163.637C33.9745 163.746 33.8102 164.651 33.7919 165.977C33.7736 167.301 33.865 169.027 34.1299 170.901C34.3949 172.774 34.8242 174.455 35.217 175.726C35.6281 176.996 36.0391 177.836 36.2675 177.836C36.569 177.854 37.0896 177.068 37.5008 175.726C37.9119 174.372 38.1403 172.445 37.8388 170.371Z" fill="#57848A"/>
<path d="M56.968 181.838C58.6855 180.659 60.1288 179.407 61.1062 178.357C62.0928 177.324 62.6227 176.502 62.4491 176.192C62.2848 175.908 61.3072 175.926 59.8913 176.319C58.4845 176.711 56.6391 177.497 54.8395 178.731C53.0398 179.965 51.6787 181.445 50.8017 182.624C49.943 183.821 49.5868 184.734 49.7329 184.926C49.9339 185.155 50.8931 184.963 52.2177 184.425C53.5514 183.912 55.2505 183.016 56.968 181.838Z" fill="#689399"/>
<path d="M58.0002 172.71C59.1969 170.189 59.873 167.748 60.147 165.902C60.4119 164.066 60.3114 162.869 60.0008 162.759C59.6902 162.65 58.9138 163.563 57.9271 165.062C56.9405 166.578 55.7621 168.69 54.6201 171.084C53.4783 173.477 52.6195 175.744 52.0805 177.48C51.5416 179.198 51.3314 180.377 51.5416 180.513C51.7882 180.677 52.7931 179.993 54.063 178.64C55.3053 177.279 56.8035 175.232 58.0002 172.71Z" fill="#4C7378"/>
<path d="M54.6982 173.27C55.5032 168.846 55.331 165.11 54.3135 164.925C53.296 164.74 51.8184 168.176 51.0133 172.599C50.2082 177.023 50.3804 180.758 51.398 180.945C52.4155 181.13 53.893 177.693 54.6982 173.27Z" fill="#689399"/>
<path d="M55.8533 143.471C56.8674 141.305 57.589 139.258 58.0001 137.687C58.4113 136.115 58.4843 135.046 58.2011 134.863C57.9179 134.699 57.0227 135.329 55.9173 136.563C54.812 137.796 53.5239 139.633 52.4734 141.871C51.4228 144.101 50.8656 146.285 50.6372 147.93C50.4088 149.574 50.491 150.662 50.7285 150.753C51.0117 150.863 51.7974 150.113 52.7656 148.807C53.6974 147.491 54.8394 145.636 55.8533 143.471Z" fill="#689399"/>
<path d="M52.9851 143.47C53.1312 141.223 53.0582 139.167 52.8572 137.632C52.6562 136.115 52.3364 135.11 52.0167 135.064C51.697 135.009 51.0849 135.868 50.5186 137.33C49.9429 138.792 49.4132 140.866 49.2487 143.205C49.0843 145.544 49.3948 147.692 49.7877 149.209C50.1805 150.725 50.6829 151.657 50.9296 151.657C51.231 151.657 51.6786 150.707 52.0715 149.227C52.4643 147.737 52.8388 145.727 52.9851 143.47Z" fill="#4C7378"/>
<path d="M55.6798 154.207C56.3742 153.101 56.9314 151.977 57.3607 150.936C57.7718 149.885 58.0733 148.898 58.256 148.039C58.6123 146.34 58.5209 145.216 58.2194 145.088C57.9179 144.96 57.1323 145.746 56.0909 147.052C55.5885 147.692 55.0038 148.478 54.3917 149.355C53.7888 150.232 53.1402 151.173 52.5008 152.215C51.8613 153.229 51.2676 154.234 50.7468 155.166C50.2261 156.098 49.7785 156.948 49.4222 157.707C48.7096 159.205 48.3351 160.265 48.527 160.42C48.737 160.621 49.7967 160.21 51.1853 159.168C51.8795 158.648 52.647 157.971 53.4143 157.131C54.2182 156.299 54.9856 155.313 55.6798 154.207Z" fill="#689399"/>
<path d="M47.2662 152.763C47.0561 151.639 46.8369 150.589 46.6267 149.638C46.5354 149.154 46.4167 148.706 46.3252 148.277C46.2704 148.067 46.2157 147.866 46.1791 147.655C46.1425 147.454 46.0878 147.263 46.0512 147.08C45.7133 145.618 45.4483 144.594 45.0829 144.54C44.7815 144.485 44.1145 145.362 43.6761 147.025C43.6213 147.226 43.5664 147.454 43.5116 147.665C43.4568 147.893 43.4385 148.131 43.4019 148.359C43.3289 148.862 43.2924 149.373 43.2742 149.912C43.2558 151 43.3472 152.197 43.5572 153.412C44.0232 155.843 44.8819 157.844 45.5944 159.251C46.3252 160.658 46.9556 161.517 47.184 161.48C47.4854 161.426 47.7777 160.393 47.8235 158.766C47.9148 157.177 47.6956 155.011 47.2662 152.763Z" fill="#4C7378"/>
<path d="M52.6469 164.925C53.9715 163.107 54.8394 161.224 55.287 159.781C55.7346 158.337 55.7895 157.313 55.488 157.158C55.2048 156.994 54.3644 157.533 53.2773 158.538C52.1902 159.534 50.8656 161.005 49.5957 162.732C48.326 164.458 47.385 166.213 46.7913 167.575C46.1884 168.937 45.9508 169.895 46.1335 170.06C46.3619 170.261 47.312 169.895 48.5452 169.046C49.8059 168.159 51.3224 166.743 52.6469 164.925Z" fill="#57848A"/>
<path d="M38.122 145.618C37.0713 143.406 35.7101 141.67 34.5866 140.528C33.463 139.386 32.5676 138.829 32.2845 138.993C32.0013 139.158 32.1018 140.208 32.5494 141.725C32.997 143.242 33.7644 145.188 34.7236 147.208C35.2077 148.222 35.6919 149.154 36.1305 150.013C36.3405 150.442 36.5781 150.853 36.7882 151.228C36.9982 151.603 37.1992 151.977 37.382 152.297C38.131 153.622 38.6883 154.49 38.9349 154.463C39.2181 154.426 39.5927 153.412 39.5927 151.749C39.5927 151.338 39.5744 150.872 39.5014 150.406C39.4465 149.921 39.3552 149.419 39.2364 148.889C39.0354 147.847 38.6426 146.723 38.122 145.618Z" fill="#4C7378"/>
<path d="M38.0398 153.741C35.4179 150.433 32.2572 148.669 31.7547 149.117C31.2705 149.546 32.5586 152.863 35.1073 156.08C37.6653 159.296 40.7347 161.187 41.1275 160.904C41.6299 160.566 40.6616 157.048 38.0398 153.741Z" fill="#4C7378"/>
<path d="M39.4648 161.151C38.4508 160.082 37.3364 159.278 36.4136 158.757C35.4818 158.236 34.751 158.045 34.4861 158.236C34.2395 158.437 34.2395 159.223 34.5958 160.256C34.952 161.288 35.6646 162.595 36.7699 163.737C37.8753 164.879 39.1634 165.61 40.1957 166.004C41.2279 166.378 42.0136 166.414 42.178 166.231C42.3789 166.004 42.1962 165.244 41.7304 164.304C41.2462 163.353 40.4971 162.211 39.4648 161.151Z" fill="#689399"/>
<path d="M41.502 171.103C40.287 168.891 39.0172 166.945 38.0032 165.565C36.9893 164.185 36.1852 163.39 35.9112 163.473C35.6646 163.564 35.7012 164.633 36.1122 166.259C36.5233 167.886 37.3272 170.08 38.5787 172.354C39.8303 174.62 41.3102 176.512 42.5251 177.8C43.7401 179.089 44.6902 179.782 44.8637 179.692C45.0921 179.563 44.8637 178.53 44.27 176.959C43.6579 175.388 42.7353 173.323 41.502 171.103Z" fill="#689399"/>
<path d="M47.1384 174.154C47.1566 172.491 46.7638 171.01 46.2796 169.997C45.7954 168.982 45.2291 168.406 44.8911 168.461C44.5714 168.516 44.2151 169.211 43.9228 170.234C43.6396 171.267 43.4021 172.609 43.3838 174.09C43.3655 175.57 43.5847 176.931 43.8497 177.964C44.1146 178.996 44.4526 179.719 44.7084 179.746C45.0099 179.801 45.5854 179.262 46.1153 178.265C46.6633 177.279 47.1292 175.816 47.1384 174.154Z" fill="#4C7378"/>
<path d="M48.609 180.083C49.3765 178.402 49.6231 176.711 49.5957 175.46C49.5408 174.209 49.2211 173.422 48.9014 173.349C48.5818 173.277 47.9879 173.87 47.3119 174.811C46.6359 175.761 45.8868 177.041 45.2017 178.53C44.5257 180.011 44.0781 181.445 43.8223 182.587C43.5573 183.729 43.5026 184.57 43.6943 184.717C43.9227 184.899 44.7449 184.625 45.7315 183.839C46.6998 183.071 47.8235 181.784 48.609 180.083Z" fill="#689399"/>
<path d="M43.7309 151.1C43.804 148.405 43.4843 145.974 43.0367 144.238C42.6073 142.484 42.0684 141.451 41.7303 141.469C41.4107 141.488 40.9995 142.575 40.6615 144.311C40.3235 146.047 40.0403 148.405 39.9672 151.009C39.8942 153.613 40.0951 155.989 40.3418 157.743C40.6068 159.497 40.9447 160.603 41.2005 160.64C41.502 160.676 42.0957 159.653 42.6255 157.944C43.1828 156.208 43.6578 153.796 43.7309 151.1Z" fill="#689399"/>
<path d="M57.3698 198.807C57.3333 199.126 51.3314 199.4 43.9227 199.4C36.5324 199.4 30.5122 199.136 30.4757 198.807C30.4757 198.844 30.4757 198.899 30.4757 198.934L32.7413 222.921L33.1158 226.941C33.134 227.653 37.9574 228.229 43.9045 228.229C49.8697 228.229 54.6932 227.653 54.6932 226.941L54.7663 226.101C54.7663 226.082 54.7663 226.064 54.7663 226.046L54.9489 224.191L57.3424 198.934C57.3698 198.899 57.3698 198.844 57.3698 198.807Z" fill="#DEC7B2"/>
<path d="M55.6982 216.624L55.8077 215.556C55.7712 215.573 55.7346 215.591 55.6798 215.591C51.6421 217.09 47.6226 218.589 43.5939 220.097C41.2735 220.956 38.9532 221.833 36.6511 222.682C36.3131 222.811 36.1669 223.221 36.441 223.487C38.5878 225.652 41.7942 225.716 44.5806 226.465C45.4575 226.694 46.3345 227.023 47.0836 227.498H48.6183C46.8369 225.762 44.1146 225.35 41.6937 224.839C40.3053 224.537 38.871 224.163 37.7291 223.303C41.7486 221.806 45.7498 220.325 49.7602 218.818C51.7334 218.113 53.7157 217.382 55.6982 216.624Z" fill="#EBDBCD"/>
<path d="M45.1926 207.076C49.0842 205.989 52.9942 204.91 56.8857 203.841L57.0685 201.914C48.7645 202.096 40.4606 202.47 32.1568 203.037C31.7274 203.074 31.298 203.091 30.8687 203.128L30.96 204.097C38.1403 203.595 45.3297 203.22 52.51 203.009C53.8894 202.974 55.278 202.936 56.6483 202.899C53.0216 203.896 49.3949 204.882 45.7773 205.897C41.228 207.167 36.6877 208.52 32.4034 210.521C32.1384 210.648 31.8643 210.768 31.5995 210.895L31.709 211.928C31.9192 211.818 32.1567 211.718 32.3668 211.608C36.4867 209.643 40.8443 208.291 45.1926 207.076Z" fill="#EBDBCD"/>
<path d="M35.2352 215.382C39.8029 215.309 44.3066 214.349 48.7554 213.362C51.2036 212.823 53.6701 212.257 56.1458 211.828L56.2371 210.84C50.1805 211.91 44.2243 213.719 38.0946 214.267C36.0574 214.449 33.9837 214.477 31.9557 214.304L32.047 215.29C33.1067 215.364 34.1572 215.4 35.2352 215.382Z" fill="#EBDBCD"/>
<path d="M54.3005 198.789C54.3005 199.035 49.7968 199.236 44.2517 199.236C38.7066 199.236 34.2029 199.035 34.2029 198.789H30.5215C30.5215 198.789 30.5215 198.789 30.5215 198.806C30.558 199.126 36.5599 199.4 43.9685 199.4C51.3589 199.4 57.3791 199.135 57.4156 198.806C57.4156 198.806 57.4156 198.806 57.4156 198.789H54.3005Z" fill="#E8D4C1"/>
</svg>
