<svg width="165" height="165" viewBox="0 0 165 165" fill="none" xmlns="http://www.w3.org/2000/svg">
<path fill-rule="evenodd" clip-rule="evenodd" d="M82 122C104.091 122 122 104.091 122 82C122 59.9086 104.091 42 82 42C59.9086 42 42 59.9086 42 82C42 104.091 59.9086 122 82 122ZM83.9777 78.5213L99 84.7872L69.7468 112L81.0229 85.4763L66 79.2103L95.2532 52L83.9777 78.5213Z" fill="black"/>
<path fill-rule="evenodd" clip-rule="evenodd" d="M82.5 165C128.063 165 165 128.063 165 82.5C165 36.9365 128.063 0 82.5 0C36.9365 0 0 36.9365 0 82.5C0 128.063 36.9365 165 82.5 165ZM32.1493 28.6348C30.0367 28.199 28.1685 30.0685 28.6055 32.1808L34.1573 59.0107C34.4025 60.1954 33.912 61.4115 32.9136 62.0946L11.1956 76.9529C9.47607 78.1293 9.44971 80.6572 11.1445 81.8691L34.2906 98.4209C35.2041 99.0741 35.6763 100.183 35.5143 101.294L31.5654 128.393C31.276 130.38 32.9819 132.085 34.9686 131.794L62.0653 127.828C63.1763 127.665 64.2852 128.137 64.9388 129.05L81.5052 152.185C82.7183 153.879 85.2462 153.852 86.4215 152.131L101.266 130.404C101.948 129.405 103.164 128.914 104.349 129.158L131.183 134.693C133.295 135.129 135.163 133.259 134.726 131.147L129.175 104.317C128.929 103.132 129.42 101.916 130.418 101.233L152.136 86.3749C153.856 85.1985 153.882 82.6705 152.187 81.4586L129.041 64.9069C128.128 64.2537 127.656 63.1451 127.818 62.034L131.766 34.9348C132.056 32.948 130.35 31.2431 128.363 31.5339L101.267 35.4999C100.156 35.6625 99.0468 35.191 98.3929 34.2781L81.8265 11.1423C80.6136 9.44836 78.0857 9.4762 76.9104 11.1965L62.0658 32.9239C61.3833 33.9228 60.1676 34.4141 58.9828 34.1696L32.1493 28.6348Z" fill="black"/>
<line x1="58.6159" y1="50.3201" x2="53.6159" y2="44.3201" stroke="black"/>
<circle cx="52.5" cy="42.5" r="2" stroke="black"/>
<line x1="66.6159" y1="51.3201" x2="61.6159" y2="45.3201" stroke="black"/>
<circle cx="60.5" cy="43.5" r="2" stroke="black"/>
<line x1="68.684" y1="46.2745" x2="67.4551" y2="38.5615" stroke="black"/>
<circle cx="67.4267" cy="36.4268" r="2" transform="rotate(30.753 67.4267 36.4268)" stroke="black"/>
<line x1="60.5995" y1="52.1687" x2="53.2822" y2="49.4378" stroke="black"/>
<circle cx="51.4107" cy="48.4107" r="2" transform="rotate(-29.7282 51.4107 48.4107)" stroke="black"/>
<line x1="28.8873" y1="38.5129" x2="37.6905" y2="36.4769" stroke="black"/>
<circle cx="39.8309" cy="36.3411" r="2" transform="rotate(117.923 39.8309 36.3411)" stroke="black"/>
<line x1="25.4274" y1="44.6833" x2="33.0703" y2="43.0751" stroke="black"/>
<circle cx="35.201" cy="42.9415" r="2" transform="rotate(117.923 35.201 42.9415)" stroke="black"/>
<line x1="28.9171" y1="48.8734" x2="36.3075" y2="51.3995" stroke="black"/>
<circle cx="38.207" cy="52.3741" r="2" transform="rotate(148.676 38.207 52.3741)" stroke="black"/>
<line x1="27.495" y1="38.9699" x2="33.3345" y2="33.7834" stroke="black"/>
<circle cx="35.1184" cy="32.6108" r="2" transform="rotate(88.195 35.1184 32.6108)" stroke="black"/>
<line x1="57.1779" y1="31.0804" x2="52.4428" y2="40.2305" stroke="black"/>
<line y1="-0.5" x2="8.38091" y2="-0.5" transform="matrix(-0.361917 0.932211 -0.966852 -0.255336 53.1326 24.7532)" stroke="black"/>
<path d="M48.4098 33.0376C49.5331 32.3314 50.8634 32.6144 51.4235 33.5054C51.9836 34.3964 51.662 35.7179 50.5386 36.4241C49.4153 37.1303 48.085 36.8473 47.5249 35.9563C46.9648 35.0653 47.2864 33.7438 48.4098 33.0376Z" stroke="black"/>
<line x1="47.8098" y1="26.0827" x2="41.3944" y2="34.3074" stroke="black"/>
<line x1="54.6568" y1="30.8728" x2="65.2025" y2="35.5428" stroke="black"/>
<line y1="-0.5" x2="8.38091" y2="-0.5" transform="matrix(0.490649 0.871357 -0.810985 0.585067 65.0756 19.0701)" stroke="black"/>
<path d="M68.4797 27.9779C68.647 26.6616 69.71 25.8132 70.754 25.9459C71.798 26.0786 72.6151 27.1659 72.4478 28.4822C72.2805 29.7985 71.2174 30.6469 70.1734 30.5142C69.1294 30.3815 68.3124 29.2942 68.4797 27.9779Z" stroke="black"/>
<line x1="46.7218" y1="65.9239" x2="38.9485" y2="65.1652" stroke="black"/>
<circle cx="36.8758" cy="64.6535" r="2" transform="rotate(-44.6197 36.8758 64.6535)" stroke="black"/>
<line x1="53.1185" y1="61.0166" x2="45.3452" y2="60.2578" stroke="black"/>
<circle cx="43.2725" cy="59.7461" r="2" transform="rotate(-44.6197 43.2725 59.7461)" stroke="black"/>
<line x1="52.697" y1="57.3977" x2="44.7475" y2="51.3405" stroke="black"/>
<circle cx="43.2347" cy="49.8461" r="2" transform="rotate(-13.8667 43.2347 49.8461)" stroke="black"/>
<line x1="49.4321" y1="65.8465" x2="42.3056" y2="69.0423" stroke="black"/>
<circle cx="40.2521" cy="69.6258" r="2" transform="rotate(-74.3479 40.2521 69.6258)" stroke="black"/>
<line x1="46.3815" y1="77.6155" x2="38.6082" y2="76.8568" stroke="black"/>
<circle cx="36.5355" cy="76.3451" r="2" transform="rotate(-44.6197 36.5355 76.3451)" stroke="black"/>
<line x1="49.0919" y1="77.5381" x2="41.9654" y2="80.7339" stroke="black"/>
<circle cx="39.9119" cy="81.3174" r="2" transform="rotate(-74.3479 39.9119 81.3174)" stroke="black"/>
<line x1="29.2346" y1="59.0435" x2="35.5462" y2="63.6438" stroke="black"/>
<line x1="21.2321" y1="60.0235" x2="27.5437" y2="64.6239" stroke="black"/>
<circle cx="29.0696" cy="66.1171" r="2" transform="rotate(165.893 29.0696 66.1171)" stroke="black"/>
<line x1="20.4562" y1="65.421" x2="23.5279" y2="72.6019" stroke="black"/>
<circle cx="24.0757" cy="74.6653" r="2" transform="rotate(-163.354 24.0757 74.6653)" stroke="black"/>
<line x1="26.8603" y1="57.7341" x2="34.6225" y2="58.5992" stroke="black"/>
<circle cx="36.6879" cy="59.1391" r="2" transform="rotate(136.165 36.6879 59.1391)" stroke="black"/>
<line x1="116.5" y1="100.999" x2="116.533" y2="112.631" stroke="black"/>
<circle cx="116.268" cy="114.741" r="2" transform="rotate(-141.361 116.268 114.741)" stroke="black"/>
<line x1="110.749" y1="99.0375" x2="110.908" y2="106.846" stroke="black"/>
<circle cx="110.643" cy="108.965" r="2" transform="rotate(-141.361 110.643 108.965)" stroke="black"/>
<line x1="105.983" y1="101.687" x2="102.127" y2="108.479" stroke="black"/>
<circle cx="100.816" cy="110.164" r="2" transform="rotate(-110.608 100.816 110.164)" stroke="black"/>
<line x1="115.978" y1="102.131" x2="119.989" y2="108.833" stroke="black"/>
<circle cx="120.809" cy="110.804" r="2" transform="rotate(-171.09 120.809 110.804)" stroke="black"/>
<line x1="101.5" y1="113.971" x2="101.533" y2="125.603" stroke="black"/>
<circle cx="101.268" cy="127.713" r="2" transform="rotate(-141.361 101.268 127.713)" stroke="black"/>
<line x1="95.7492" y1="112.01" x2="95.9082" y2="119.818" stroke="black"/>
<circle cx="95.6434" cy="121.937" r="2" transform="rotate(-141.361 95.6434 121.937)" stroke="black"/>
<line x1="90.9834" y1="114.659" x2="87.1272" y2="121.451" stroke="black"/>
<circle cx="85.8164" cy="123.136" r="2" transform="rotate(-110.608 85.8164 123.136)" stroke="black"/>
<line x1="100.978" y1="115.103" x2="104.989" y2="121.806" stroke="black"/>
<circle cx="105.809" cy="123.776" r="2" transform="rotate(-171.09 105.809 123.776)" stroke="black"/>
<line x1="67.5" y1="109.971" x2="67.5327" y2="121.603" stroke="black"/>
<circle cx="67.2678" cy="123.713" r="2" transform="rotate(-141.361 67.2678 123.713)" stroke="black"/>
<line x1="61.7492" y1="108.01" x2="61.9082" y2="115.818" stroke="black"/>
<circle cx="61.6434" cy="117.937" r="2" transform="rotate(-141.361 61.6434 117.937)" stroke="black"/>
<line x1="56.9834" y1="110.659" x2="53.1272" y2="117.451" stroke="black"/>
<circle cx="51.8164" cy="119.136" r="2" transform="rotate(-110.608 51.8164 119.136)" stroke="black"/>
<line x1="66.9785" y1="111.103" x2="70.9888" y2="117.806" stroke="black"/>
<circle cx="71.8094" cy="119.776" r="2" transform="rotate(-171.09 71.8094 119.776)" stroke="black"/>
<line x1="90.4507" y1="22.0369" x2="89.8737" y2="29.8258" stroke="black"/>
<circle cx="89.4105" cy="31.9099" r="2" transform="rotate(-135.958 89.4105 31.9099)" stroke="black"/>
<line x1="82.4507" y1="8.03694" x2="81.8737" y2="15.8258" stroke="black"/>
<circle cx="81.4105" cy="17.9099" r="2" transform="rotate(-135.958 81.4105 17.9099)" stroke="black"/>
<line x1="86.4507" y1="15.0369" x2="85.8737" y2="22.8258" stroke="black"/>
<circle cx="85.4105" cy="24.9099" r="2" transform="rotate(-135.958 85.4105 24.9099)" stroke="black"/>
<line x1="104.451" y1="31.0369" x2="103.874" y2="38.8258" stroke="black"/>
<circle cx="103.41" cy="40.9099" r="2" transform="rotate(-135.958 103.41 40.9099)" stroke="black"/>
<line x1="81.7879" y1="10.4955" x2="77.3093" y2="16.8941" stroke="black"/>
<circle cx="75.8458" cy="18.4483" r="2" transform="rotate(-105.205 75.8458 18.4483)" stroke="black"/>
<line x1="91.6969" y1="11.8789" x2="95.0583" y2="18.9288" stroke="black"/>
<circle cx="95.6896" cy="20.9682" r="2" transform="rotate(-165.686 95.6896 20.9682)" stroke="black"/>
<line x1="129.838" y1="31.5867" x2="129.261" y2="39.3756" stroke="black"/>
<circle cx="128.797" cy="41.4597" r="2" transform="rotate(-135.958 128.797 41.4597)" stroke="black"/>
<line x1="124.782" y1="25.3063" x2="124.205" y2="33.0953" stroke="black"/>
<circle cx="123.742" cy="35.1793" r="2" transform="rotate(-135.958 123.742 35.1793)" stroke="black"/>
<line x1="119.788" y1="27.4955" x2="115.309" y2="33.8941" stroke="black"/>
<circle cx="113.846" cy="35.4483" r="2" transform="rotate(-105.205 113.846 35.4483)" stroke="black"/>
<line x1="129.697" y1="28.8789" x2="133.058" y2="35.9288" stroke="black"/>
<circle cx="133.689" cy="37.9681" r="2" transform="rotate(-165.686 133.689 37.9681)" stroke="black"/>
<line x1="150.353" y1="88.017" x2="143.333" y2="91.4409" stroke="black"/>
<circle cx="141.299" cy="92.0902" r="2" transform="rotate(-76.1956 141.299 92.0902)" stroke="black"/>
<line x1="153.233" y1="80.4866" x2="146.213" y2="83.9106" stroke="black"/>
<circle cx="144.179" cy="84.5599" r="2" transform="rotate(-76.1956 144.179 84.5599)" stroke="black"/>
<line x1="148.826" y1="77.2743" x2="141.043" y2="76.6273" stroke="black"/>
<circle cx="138.963" cy="76.1455" r="2" transform="rotate(-45.4426 138.963 76.1455)" stroke="black"/>
<line x1="152.621" y1="86.5317" x2="148.223" y2="92.986" stroke="black"/>
<circle cx="146.779" cy="94.5584" r="2" transform="rotate(-105.924 146.779 94.5584)" stroke="black"/>
<line x1="120.562" y1="134.242" x2="115.362" y2="124.819" stroke="black"/>
<circle cx="114.468" cy="122.926" r="2" transform="rotate(6.12259 114.468 122.926)" stroke="black"/>
<line x1="129.583" y1="136.276" x2="123.231" y2="126.701" stroke="black"/>
<circle cx="122.316" cy="124.773" r="2" transform="rotate(6.12259 122.316 124.773)" stroke="black"/>
<line x1="130.5" y1="137" x2="130.5" y2="120" stroke="black"/>
<circle cx="129.958" cy="118.479" r="2" transform="rotate(36.8756 129.958 118.479)" stroke="black"/>
<line x1="121.491" y1="133.403" x2="114.506" y2="129.907" stroke="black"/>
<circle cx="112.755" cy="128.687" r="2" transform="rotate(-23.6056 112.755 128.687)" stroke="black"/>
<line x1="76.81" y1="148.289" x2="77.7946" y2="137.572" stroke="black"/>
<circle cx="78.1174" cy="135.503" r="2" transform="rotate(40.2646 78.1174 135.503)" stroke="black"/>
<line x1="83.1341" y1="155.036" x2="83.2507" y2="143.546" stroke="black"/>
<circle cx="83.5756" cy="141.437" r="2" transform="rotate(40.2646 83.5756 141.437)" stroke="black"/>
<line x1="83.4867" y1="156.149" x2="93.0279" y2="142.079" stroke="black"/>
<circle cx="93.4328" cy="140.517" r="2" transform="rotate(71.0177 93.4328 140.517)" stroke="black"/>
<line x1="78.0487" y1="148.116" x2="74.2302" y2="141.303" stroke="black"/>
<circle cx="73.4659" cy="139.31" r="2" transform="rotate(10.5364 73.4659 139.31)" stroke="black"/>
<line x1="77.7317" y1="113.866" x2="80.8133" y2="124.936" stroke="black"/>
<line x1="80.4642" y1="129.186" x2="78.4642" y2="134.186" stroke="black"/>
<circle cx="81.0872" cy="127.052" r="2" transform="rotate(-155.873 81.0872 127.052)" stroke="black"/>
<line x1="42.0314" y1="132.943" x2="43.0161" y2="122.226" stroke="black"/>
<circle cx="43.3389" cy="120.158" r="2" transform="rotate(40.2646 43.3389 120.158)" stroke="black"/>
<line x1="48.3555" y1="139.69" x2="48.4721" y2="128.2" stroke="black"/>
<circle cx="48.797" cy="126.091" r="2" transform="rotate(40.2646 48.797 126.091)" stroke="black"/>
<line x1="48.7081" y1="140.804" x2="58.2493" y2="126.734" stroke="black"/>
<circle cx="58.6542" cy="125.171" r="2" transform="rotate(71.0177 58.6542 125.171)" stroke="black"/>
<line x1="43.2701" y1="132.77" x2="39.4516" y2="125.957" stroke="black"/>
<circle cx="38.6873" cy="123.964" r="2" transform="rotate(10.5364 38.6873 123.964)" stroke="black"/>
<line x1="17.0314" y1="89.9431" x2="18.0161" y2="79.2259" stroke="black"/>
<circle cx="18.3389" cy="77.1576" r="2" transform="rotate(40.2646 18.3389 77.1576)" stroke="black"/>
<line x1="23.3555" y1="96.6904" x2="23.4721" y2="85.2002" stroke="black"/>
<circle cx="23.797" cy="83.0912" r="2" transform="rotate(40.2646 23.797 83.0912)" stroke="black"/>
<line x1="23.7081" y1="97.8037" x2="33.2493" y2="83.7337" stroke="black"/>
<circle cx="33.6542" cy="82.1708" r="2" transform="rotate(71.0177 33.6542 82.1708)" stroke="black"/>
<line x1="18.2701" y1="89.7703" x2="14.4516" y2="82.9571" stroke="black"/>
<circle cx="13.6873" cy="80.9638" r="2" transform="rotate(10.5364 13.6873 80.9638)" stroke="black"/>
<line x1="25.9786" y1="105.033" x2="35.9958" y2="110.663" stroke="black"/>
<circle cx="37.6885" cy="111.962" r="2" transform="rotate(159.019 37.6885 111.962)" stroke="black"/>
<line x1="24.8329" y1="104.806" x2="32.5781" y2="119.939" stroke="black"/>
<circle cx="33.7535" cy="121.046" r="2" transform="rotate(-170.228 33.7535 121.046)" stroke="black"/>
<line x1="34.4917" y1="103.904" x2="42.3017" y2="103.833" stroke="black"/>
<circle cx="44.4168" cy="104.122" r="2" transform="rotate(129.291 44.4168 104.122)" stroke="black"/>
<line x1="27.8074" y1="99.7268" x2="38.0446" y2="96.4058" stroke="black"/>
<circle cx="40.0727" cy="95.8869" r="2" transform="rotate(107.042 40.0727 95.8869)" stroke="black"/>
<line x1="28.4548" y1="100.797" x2="33.2103" y2="94.6015" stroke="black"/>
<circle cx="34.7408" cy="93.1132" r="2" transform="rotate(77.3138 34.7408 93.1132)" stroke="black"/>
<line x1="78.2277" y1="43.3107" x2="79.3313" y2="35.5788" stroke="black"/>
<circle cx="79.9347" cy="33.5309" r="2" transform="rotate(47.9292 79.9347 33.5309)" stroke="black"/>
<line x1="82.8457" y1="49.9193" x2="83.9494" y2="42.1874" stroke="black"/>
<circle cx="84.5527" cy="40.1395" r="2" transform="rotate(47.9292 84.5527 40.1395)" stroke="black"/>
<line x1="87.977" y1="48.0736" x2="92.879" y2="41.9934" stroke="black"/>
<circle cx="94.4446" cy="40.542" r="2" transform="rotate(78.6822 94.4446 40.542)" stroke="black"/>
<line x1="78.1844" y1="46.0217" x2="75.3087" y2="38.7602" stroke="black"/>
<circle cx="74.8171" cy="36.6827" r="2" transform="rotate(18.201 74.8171 36.6827)" stroke="black"/>
<line x1="107.698" y1="53.1516" x2="113.091" y2="47.5024" stroke="black"/>
<circle cx="114.772" cy="46.1869" r="2" transform="rotate(83.4771 114.772 46.1869)" stroke="black"/>
<line x1="107.613" y1="61.2134" x2="113.006" y2="55.5642" stroke="black"/>
<circle cx="114.688" cy="54.2487" r="2" transform="rotate(83.4771 114.688 54.2487)" stroke="black"/>
<line x1="112.861" y1="62.6949" x2="120.384" y2="60.5978" stroke="black"/>
<circle cx="122.502" cy="60.3272" r="2" transform="rotate(114.23 122.502 60.3272)" stroke="black"/>
<line x1="106.086" y1="55.3323" x2="107.968" y2="47.7522" stroke="black"/>
<circle cx="108.776" cy="45.7761" r="2" transform="rotate(53.7489 108.776 45.7761)" stroke="black"/>
<line x1="107.698" y1="53.1516" x2="113.091" y2="47.5024" stroke="black"/>
<circle cx="114.772" cy="46.1869" r="2" transform="rotate(83.4771 114.772 46.1869)" stroke="black"/>
<line x1="107.613" y1="61.2134" x2="113.006" y2="55.5642" stroke="black"/>
<circle cx="114.688" cy="54.2487" r="2" transform="rotate(83.4771 114.688 54.2487)" stroke="black"/>
<line x1="112.861" y1="62.6949" x2="120.384" y2="60.5978" stroke="black"/>
<circle cx="122.502" cy="60.3272" r="2" transform="rotate(114.23 122.502 60.3272)" stroke="black"/>
<line x1="106.086" y1="55.3323" x2="107.968" y2="47.7522" stroke="black"/>
<circle cx="108.776" cy="45.7761" r="2" transform="rotate(53.7489 108.776 45.7761)" stroke="black"/>
<line x1="121.087" y1="83.9226" x2="128.893" y2="84.1839" stroke="black"/>
<circle cx="130.994" cy="84.5624" r="2" transform="rotate(131.723 130.994 84.5624)" stroke="black"/>
<line x1="115.017" y1="89.2281" x2="122.823" y2="89.4894" stroke="black"/>
<circle cx="124.924" cy="89.8678" r="2" transform="rotate(131.723 124.924 89.8678)" stroke="black"/>
<line x1="117.406" y1="94.1298" x2="123.981" y2="98.3457" stroke="black"/>
<circle cx="125.593" cy="99.7453" r="2" transform="rotate(162.476 125.593 99.7453)" stroke="black"/>
<line x1="118.857" y1="82.1728" x2="125.765" y2="78.5289" stroke="black"/>
<circle cx="127.777" cy="77.8155" r="2" transform="rotate(101.994 127.777 77.8155)" stroke="black"/>
<line x1="126.839" y1="76.4956" x2="125.656" y2="68.7755" stroke="black"/>
<circle cx="125.641" cy="66.6407" r="2" transform="rotate(31.0933 125.641 66.6407)" stroke="black"/>
</svg>
