<svg width="230" height="230" viewBox="0 0 230 230" fill="none" xmlns="http://www.w3.org/2000/svg">
<path d="M228.92 226H1.08008C0.483568 226 0 226.672 0 227.5C0 228.328 0.483568 229 1.08008 229H228.92C229.516 229 230 228.328 230 227.5C230 226.672 229.516 226 228.92 226Z" fill="#2B468B"/>
<path d="M212.042 30.335H115.77V223.078H212.042V30.335Z" fill="#B0E2E1"/>
<path fill-rule="evenodd" clip-rule="evenodd" d="M109.466 25.4956H114.063H211.779H216.376V30.3349V227.226H211.779V30.3349H114.063V227.226H109.466V30.3349V25.4956Z" fill="#5A9DAE"/>
<path d="M115.77 30.335V225.152H212.042" stroke="#6BB6BF" stroke-width="5"/>
<path fill-rule="evenodd" clip-rule="evenodd" d="M205.475 37.2483H124.176V84.7152H205.475V37.2483ZM205.475 91.6285H124.176V140.601H205.475V91.6285ZM124.176 216.165V147.514H205.475V216.165H124.176ZM124.176 30.335H117.609V37.2483V216.165V223.078H124.176H205.475H212.042V216.165V37.2483V30.335H205.475H124.176Z" fill="#86D1CD"/>
<path d="M213.224 135.763C213.224 141.742 208.564 146.616 202.782 146.616C197.002 146.616 192.341 141.742 192.341 135.763C192.341 129.783 197.002 124.909 202.782 124.909C208.564 124.909 213.224 129.783 213.224 135.763Z" stroke="#F1A350" stroke-width="3"/>
<path d="M192.015 142.046C191.76 141.17 192.228 140.242 193.061 139.974L216.373 132.447C217.205 132.178 218.086 132.671 218.342 133.547L221.082 142.954C222.851 149.026 219.61 155.458 213.841 157.32L208.402 159.076C202.634 160.938 196.525 157.526 194.756 151.454L192.015 142.046Z" fill="#D76713"/>
<path d="M189.913 142.738C189.659 141.861 190.126 140.934 190.959 140.665L214.272 133.138C215.103 132.87 215.984 133.362 216.241 134.238L218.98 143.646C220.749 149.718 217.508 156.149 211.74 158.012L206.301 159.768C200.532 161.63 194.424 158.217 192.655 152.145L189.913 142.738Z" fill="#F1A350"/>
<path fill-rule="evenodd" clip-rule="evenodd" d="M206.942 147.505C207.879 146.846 208.495 145.734 208.495 144.474C208.495 142.45 206.909 140.81 204.949 140.81C202.991 140.81 201.403 142.45 201.403 144.474C201.403 146.471 202.95 148.096 204.874 148.137L205.175 149.246L204.997 149.278C204.381 149.389 203.965 150.004 204.071 150.654C204.176 151.303 204.76 151.739 205.377 151.628L205.8 151.553L206.46 153.989C206.464 154.083 206.479 154.179 206.506 154.273C206.686 154.904 207.316 155.262 207.916 155.074L209.387 154.61C209.986 154.422 210.328 153.757 210.148 153.126C209.969 152.495 209.337 152.137 208.738 152.326L208.287 152.468L206.942 147.505Z" fill="#C65407"/>
<path fill-rule="evenodd" clip-rule="evenodd" d="M207.205 147.367C208.142 146.708 208.758 145.596 208.758 144.335C208.758 142.312 207.172 140.671 205.212 140.671C203.254 140.671 201.666 142.312 201.666 144.335C201.666 146.333 203.213 147.957 205.137 147.999L205.438 149.108L205.259 149.14C204.643 149.25 204.228 149.866 204.334 150.515C204.439 151.165 205.023 151.601 205.64 151.49L206.063 151.415L206.723 153.851C206.727 153.945 206.742 154.04 206.769 154.135C206.948 154.766 207.579 155.124 208.179 154.935L209.65 154.472C210.249 154.283 210.591 153.619 210.411 152.988C210.232 152.357 209.6 151.999 209.001 152.187L208.55 152.33L207.205 147.367Z" fill="#D76713"/>
<path d="M204.03 116.613C204.03 114.704 202.56 113.156 200.746 113.156C198.933 113.156 197.463 114.704 197.463 116.613V130.44C197.463 132.349 198.933 133.896 200.746 133.896C202.56 133.896 204.03 132.349 204.03 130.44V116.613Z" fill="#5A9DAE"/>
<path d="M46.5058 197.375C39.097 197.375 33.0952 197.64 33.0586 197.969C33.0952 198.288 39.097 198.562 46.5058 198.562C53.8962 198.562 59.9162 198.298 59.9528 197.969C59.9162 197.631 53.9144 197.375 46.5058 197.375ZM46.8072 198.398C41.2529 198.398 36.7584 198.198 36.7584 197.951C36.7584 197.704 41.2621 197.503 46.8072 197.503C52.3522 197.503 56.8559 197.704 56.8559 197.951C56.8742 198.198 52.3614 198.398 46.8072 198.398Z" fill="#E8D4C1"/>
<path d="M46.5058 197.375C39.0788 197.375 33.0586 197.64 33.0586 197.969C33.0586 198.298 39.0788 198.562 46.5058 198.562C53.9326 198.562 59.9528 198.298 59.9528 197.969C59.9528 197.64 53.9326 197.375 46.5058 197.375ZM46.8072 198.398C41.2529 198.398 36.7584 198.198 36.7584 197.951C36.7584 197.704 41.2621 197.503 46.8072 197.503C52.3522 197.503 56.8559 197.704 56.8559 197.951C56.8742 198.198 52.3614 198.398 46.8072 198.398Z" fill="#E8D4C1"/>
<path d="M46.807 198.398C52.3568 198.398 56.8558 198.198 56.8558 197.951C56.8558 197.703 52.3568 197.503 46.807 197.503C41.2573 197.503 36.7583 197.703 36.7583 197.951C36.7583 198.198 41.2573 198.398 46.807 198.398Z" fill="#BA9C7E"/>
<path d="M54.1971 146.745C51.3196 153.571 49.2733 160.743 48.104 168.072C46.9347 175.4 46.6241 182.837 47.1905 190.239C47.5102 194.378 48.1223 198.508 48.99 202.565C49.1546 203.296 50.2781 202.994 50.1138 202.264C48.5608 195.081 47.9031 187.744 48.0948 180.408C48.2958 173.106 49.3647 165.815 51.274 158.761C52.3427 154.777 53.7039 150.866 55.3117 147.065C55.4396 146.782 55.1838 146.425 54.9006 146.352C54.5717 146.242 54.3068 146.462 54.1971 146.745Z" fill="#4C7378"/>
<path d="M54.572 177.638C51.6944 183.87 49.9861 190.586 49.5203 197.43C49.3924 199.34 49.3558 201.268 49.4288 203.177C49.4654 203.927 50.6256 203.927 50.589 203.177C50.3424 196.498 51.3199 189.818 53.4667 183.496C54.0696 181.713 54.773 179.941 55.5769 178.223C55.8966 177.557 54.8917 176.962 54.572 177.638Z" fill="#4C7378"/>
<path d="M39.928 148.28C41.7642 154.621 43.0705 161.1 44.0389 167.624C45.0072 174.148 45.6284 180.717 46.1308 187.269C46.414 190.988 46.6698 194.716 46.8982 198.453C46.9531 199.203 48.1132 199.203 48.0584 198.453C47.629 191.828 47.1814 185.186 46.5419 178.58C45.8842 171.991 45.0254 165.394 43.7191 158.898C42.9883 155.215 42.1113 151.578 41.0608 147.969C40.8416 147.247 39.7362 147.549 39.928 148.28Z" fill="#4C7378"/>
<path d="M33.1316 167.322C34.7212 168.949 35.6987 171.023 36.5574 173.088C37.5074 175.373 38.3387 177.712 39.0604 180.087C40.4856 184.783 41.5087 189.609 42.0385 194.479C42.34 197.211 42.5044 199.962 42.5227 202.73C42.5227 203.479 43.6829 203.479 43.6829 202.73C43.6463 197.695 43.1257 192.661 42.1664 187.726C41.198 182.801 39.7547 177.94 37.8637 173.28C36.8771 170.849 35.8083 168.401 33.9355 166.509C33.4149 165.961 32.5927 166.783 33.1316 167.322Z" fill="#4C7378"/>
<path d="M41.1431 190.394C40.2843 189.344 39.2154 188.621 38.3202 188.264C37.425 187.908 36.7125 187.908 36.5023 188.137C36.2923 188.366 36.3379 189.069 36.6484 189.918C36.9591 190.768 37.4707 191.793 38.238 192.743C39.0054 193.693 39.9189 194.387 40.7227 194.853C41.5084 195.319 42.1844 195.511 42.3854 195.392C42.6321 195.228 42.7783 194.534 42.6138 193.592C42.4676 192.641 42.0018 191.444 41.1431 190.394Z" fill="#4C7378"/>
<path d="M44.8246 182.518C45.5371 179.018 44.8794 175.966 44.2216 175.838C43.5822 175.729 41.8648 178.323 41.1706 181.768C40.4762 185.213 41.1888 188.301 41.6546 188.411C42.2393 188.558 44.1121 186.017 44.8246 182.518Z" fill="#689399"/>
<path d="M41.6826 188.384C42.4074 187.646 40.6666 184.76 37.7943 181.938C34.9221 179.116 32.006 177.425 31.2813 178.164C30.5565 178.902 32.2972 181.788 35.1695 184.61C38.0417 187.432 40.9578 189.122 41.6826 188.384Z" fill="#4C7378"/>
<path d="M46.9991 192.56C47.337 191.116 47.5197 189.701 47.5928 188.402C47.6659 187.114 47.6294 185.935 47.5015 184.975C47.2731 183.012 46.8072 181.833 46.4875 181.833C46.1678 181.833 45.6836 182.975 45.1445 184.783C44.8797 185.68 44.569 186.748 44.2859 187.908C43.9845 189.088 43.6646 190.357 43.3541 191.711C43.0343 193.053 42.7603 194.35 42.5319 195.53C42.3035 196.709 42.1025 197.814 41.9381 198.747C41.6367 200.6 41.5636 201.852 41.7736 201.962C42.0386 202.09 42.9886 201.231 44.0575 199.587C44.5964 198.764 45.1445 197.732 45.6653 196.553C46.1952 195.356 46.661 194.004 46.9991 192.56Z" fill="#57848A"/>
<path d="M54.6085 194.021C55.7139 192.057 56.5361 190.165 57.002 188.703C57.4862 187.241 57.6049 186.219 57.3217 186.027C57.0568 185.843 56.1432 186.364 55.0014 187.416C53.8594 188.484 52.48 190.129 51.3381 192.148C50.1963 194.185 49.5203 196.223 49.2096 197.759C49.0453 198.527 48.9812 199.166 48.9812 199.632C48.9812 199.779 48.9264 199.969 49.0361 200.208C49.0543 200.263 49.0909 200.317 49.1274 200.353C49.164 200.408 49.2553 200.463 49.3101 200.482C49.438 200.518 49.5203 200.482 49.575 200.445C49.6846 200.372 49.7577 200.243 49.7212 200.161C49.6846 200.071 49.6298 200.106 49.6116 200.106C49.5933 200.125 49.575 200.125 49.5567 200.143C49.5385 200.161 49.575 200.143 49.5567 200.143C49.5567 200.143 49.5385 200.143 49.5203 200.125C49.5019 200.106 49.4837 200.071 49.4837 200.071C49.4837 200.071 49.4837 200.106 49.4837 200.143C49.4837 200.143 49.4837 200.143 49.4837 200.161L49.5567 200.106C49.5567 200.106 49.5567 200.106 49.575 200.106C49.6116 200.106 49.6846 200.088 49.8217 200.125H49.8582H49.8764H49.8948C49.913 200.125 49.9313 200.125 49.9496 200.106C50.3242 199.824 50.7718 199.375 51.2742 198.782C52.2883 197.649 53.5032 195.968 54.6085 194.021Z" fill="#57848A"/>
<path d="M51.6488 185.159C51.3656 182.673 50.7352 180.498 50.1141 178.945C49.4929 177.41 48.8808 176.478 48.5428 176.533C48.2231 176.587 47.9216 177.638 47.7572 179.283C47.6109 180.927 47.6109 183.176 47.9034 185.57C48.0495 186.785 48.2413 187.908 48.4789 188.941C48.7073 189.973 48.9631 190.869 49.1366 191.619C49.3376 192.367 49.4745 192.98 49.6025 193.437C49.7121 193.884 49.8126 194.186 49.9405 194.205C50.0867 194.241 50.3515 194.058 50.6347 193.629C50.918 193.2 51.2286 192.505 51.4386 191.646C51.6488 190.769 51.7585 189.755 51.7949 188.668C51.8224 187.608 51.7857 186.411 51.6488 185.159Z" fill="#4C7378"/>
<path d="M36.201 173.18C34.7577 171.791 33.1864 170.821 31.9349 170.265C30.6834 169.707 29.7698 169.589 29.5597 169.853C29.3587 170.1 29.6876 170.958 30.4002 172.065C31.1128 173.17 32.2181 174.55 33.5975 175.866C34.9861 177.191 36.4386 178.186 37.5988 178.844C38.759 179.503 39.6359 179.795 39.8095 179.63C40.0379 179.43 39.8643 178.525 39.2704 177.291C38.6949 176.085 37.6627 174.568 36.201 173.18Z" fill="#689399"/>
<path d="M34.0359 163.695C32.3185 160.643 29.8064 158.87 29.2307 159.226C28.6736 159.564 29.1028 162.571 30.7655 165.531C32.4281 168.492 34.9038 170.337 35.3514 170.118C35.8995 169.835 35.7533 166.746 34.0359 163.695Z" fill="#4C7378"/>
<path d="M40.4124 169.534C40.111 167.459 39.3802 165.659 38.631 164.481C37.8819 163.284 37.1511 162.681 36.8496 162.799C36.5482 162.909 36.3838 163.813 36.3656 165.139C36.3472 166.464 36.4386 168.19 36.7035 170.063C36.9685 171.936 37.3978 173.617 37.7906 174.888C38.2017 176.158 38.6127 176.999 38.8411 176.999C39.1426 177.017 39.6633 176.231 40.0744 174.888C40.4855 173.535 40.7139 171.607 40.4124 169.534Z" fill="#57848A"/>
<path d="M59.5416 181.001C61.2591 179.822 62.7024 178.57 63.6798 177.519C64.6665 176.487 65.1963 175.664 65.0228 175.354C64.8584 175.07 63.8808 175.088 62.4649 175.482C61.0581 175.874 59.2127 176.66 57.4132 177.894C55.6134 179.128 54.2523 180.607 53.3753 181.787C52.5166 182.984 52.1604 183.897 52.3065 184.089C52.5075 184.318 53.4667 184.126 54.7913 183.587C56.1251 183.074 57.8242 182.179 59.5416 181.001Z" fill="#689399"/>
<path d="M60.5738 171.873C61.7705 169.351 62.4466 166.911 62.7206 165.065C62.9855 163.229 62.885 162.032 62.5744 161.922C62.2639 161.812 61.4874 162.726 60.5007 164.224C59.5141 165.741 58.3357 167.853 57.1937 170.247C56.0519 172.64 55.1932 174.906 54.6541 176.642C54.1152 178.36 53.9051 179.54 54.1152 179.675C54.3618 179.84 55.3667 179.156 56.6366 177.802C57.8789 176.442 59.3771 174.395 60.5738 171.873Z" fill="#4C7378"/>
<path d="M57.2718 172.432C58.0768 168.009 57.9046 164.272 56.8871 164.087C55.8696 163.902 54.3921 167.338 53.5869 171.762C52.7818 176.185 52.954 179.921 53.9716 180.107C54.9891 180.292 56.4666 176.856 57.2718 172.432Z" fill="#689399"/>
<path d="M58.4268 142.633C59.4408 140.468 60.1625 138.421 60.5736 136.849C60.9848 135.278 61.0578 134.208 60.7746 134.026C60.4914 133.861 59.5962 134.492 58.4908 135.725C57.3855 136.959 56.0974 138.795 55.0468 141.034C53.9963 143.264 53.4391 145.448 53.2107 147.092C52.9823 148.737 53.0645 149.824 53.302 149.916C53.5852 150.025 54.3709 149.276 55.3391 147.969C56.2709 146.654 57.4129 144.799 58.4268 142.633Z" fill="#689399"/>
<path d="M55.5587 142.633C55.7048 140.385 55.6318 138.329 55.4308 136.794C55.2298 135.277 54.91 134.272 54.5903 134.227C54.2706 134.172 53.6585 135.031 53.0922 136.493C52.5165 137.955 51.9868 140.029 51.8223 142.368C51.6579 144.707 51.9684 146.854 52.3613 148.371C52.7541 149.888 53.2565 150.82 53.5032 150.82C53.8046 150.82 54.2522 149.87 54.6451 148.389C55.0379 146.9 55.4124 144.89 55.5587 142.633Z" fill="#4C7378"/>
<path d="M58.2535 153.37C58.9479 152.264 59.5052 151.14 59.9344 150.098C60.3455 149.048 60.647 148.061 60.8297 147.202C61.186 145.502 61.0946 144.378 60.7931 144.25C60.4917 144.122 59.706 144.908 58.6647 146.215C58.1622 146.855 57.5775 147.64 56.9654 148.518C56.3625 149.395 55.7139 150.336 55.0746 151.378C54.435 152.392 53.8413 153.397 53.3205 154.329C52.7998 155.261 52.3522 156.111 51.9959 156.869C51.2833 158.368 50.9088 159.428 51.1007 159.583C51.3107 159.784 52.3705 159.373 53.759 158.331C54.4533 157.81 55.2207 157.134 55.988 156.293C56.7919 155.462 57.5593 154.475 58.2535 153.37Z" fill="#689399"/>
<path d="M49.8398 151.926C49.6297 150.802 49.4105 149.751 49.2003 148.801C49.109 148.317 48.9903 147.869 48.8988 147.439C48.844 147.229 48.7893 147.028 48.7527 146.818C48.7161 146.617 48.6614 146.425 48.6248 146.242C48.2869 144.78 48.0219 143.757 47.6565 143.702C47.3551 143.647 46.6881 144.524 46.2497 146.187C46.1949 146.389 46.14 146.617 46.0852 146.827C46.0304 147.056 46.0121 147.293 45.9755 147.522C45.9025 148.024 45.866 148.536 45.8478 149.075C45.8294 150.162 45.9208 151.359 46.1309 152.575C46.5968 155.005 47.4556 157.006 48.168 158.413C48.8988 159.82 49.5292 160.679 49.7576 160.643C50.059 160.588 50.3513 159.556 50.3971 157.929C50.4884 156.339 50.2692 154.174 49.8398 151.926Z" fill="#4C7378"/>
<path d="M55.2206 164.087C56.5451 162.269 57.413 160.387 57.8606 158.943C58.3082 157.5 58.3631 156.476 58.0616 156.321C57.7784 156.156 56.938 156.695 55.8509 157.701C54.7638 158.696 53.4392 160.168 52.1693 161.895C50.8996 163.621 49.9586 165.376 49.3649 166.738C48.762 168.099 48.5244 169.058 48.7071 169.222C48.9355 169.424 49.8856 169.058 51.1188 168.209C52.3795 167.322 53.896 165.905 55.2206 164.087Z" fill="#57848A"/>
<path d="M40.6956 144.78C39.6449 142.569 38.2837 140.833 37.1602 139.691C36.0366 138.549 35.1412 137.991 34.8581 138.156C34.5749 138.32 34.6754 139.371 35.123 140.888C35.5706 142.405 36.338 144.351 37.2973 146.37C37.7813 147.385 38.2655 148.317 38.7041 149.175C38.9141 149.605 39.1517 150.016 39.3618 150.391C39.5718 150.765 39.7728 151.14 39.9556 151.46C40.7046 152.785 41.2619 153.653 41.5085 153.625C41.7917 153.589 42.1663 152.574 42.1663 150.911C42.1663 150.5 42.148 150.034 42.075 149.568C42.0201 149.084 41.9288 148.581 41.81 148.051C41.609 147.01 41.2162 145.886 40.6956 144.78Z" fill="#4C7378"/>
<path d="M40.6134 152.903C37.9915 149.595 34.8308 147.832 34.3283 148.28C33.8441 148.709 35.1322 152.026 37.6809 155.242C40.2389 158.459 43.3083 160.35 43.7011 160.067C44.2035 159.729 43.2352 156.211 40.6134 152.903Z" fill="#4C7378"/>
<path d="M42.0386 160.314C41.0245 159.245 39.9101 158.441 38.9873 157.92C38.0555 157.399 37.3247 157.207 37.0599 157.399C36.8132 157.6 36.8132 158.386 37.1695 159.418C37.5257 160.451 38.2383 161.758 39.3436 162.9C40.449 164.042 41.7371 164.773 42.7694 165.166C43.8017 165.541 44.5873 165.576 44.7517 165.394C44.9527 165.166 44.7699 164.407 44.3041 163.466C43.8199 162.516 43.0708 161.374 42.0386 160.314Z" fill="#689399"/>
<path d="M44.0756 170.265C42.8606 168.053 41.5909 166.108 40.5768 164.728C39.5629 163.348 38.7588 162.553 38.4848 162.635C38.2382 162.727 38.2748 163.796 38.6858 165.422C39.0969 167.048 39.9008 169.242 41.1523 171.517C42.4039 173.782 43.8838 175.675 45.0987 176.962C46.3138 178.251 47.2638 178.945 47.4373 178.854C47.6657 178.726 47.4373 177.693 46.8436 176.122C46.2315 174.55 45.3089 172.485 44.0756 170.265Z" fill="#689399"/>
<path d="M49.712 173.317C49.7302 171.654 49.3374 170.173 48.8532 169.159C48.369 168.145 47.8027 167.569 47.4647 167.624C47.145 167.679 46.7887 168.374 46.4964 169.397C46.2132 170.429 45.9757 171.772 45.9574 173.253C45.9391 174.732 46.1583 176.094 46.4233 177.126C46.6882 178.159 47.0262 178.882 47.2821 178.909C47.5835 178.964 48.159 178.425 48.6889 177.428C49.237 176.442 49.7028 174.979 49.712 173.317Z" fill="#4C7378"/>
<path d="M51.1826 179.246C51.9501 177.565 52.1967 175.874 52.1693 174.622C52.1144 173.372 51.7948 172.585 51.4751 172.512C51.1554 172.439 50.5615 173.033 49.8855 173.974C49.2095 174.924 48.4604 176.203 47.7753 177.692C47.0993 179.173 46.6517 180.607 46.3959 181.75C46.1309 182.892 46.0762 183.732 46.268 183.879C46.4963 184.062 47.3185 183.787 48.3051 183.002C49.2734 182.234 50.3971 180.946 51.1826 179.246Z" fill="#689399"/>
<path d="M46.3045 150.263C46.3776 147.567 46.0579 145.137 45.6103 143.401C45.1809 141.646 44.642 140.614 44.304 140.632C43.9843 140.65 43.5731 141.738 43.2351 143.474C42.8971 145.21 42.6139 147.567 42.5408 150.172C42.4678 152.776 42.6687 155.151 42.9154 156.906C43.1804 158.66 43.5183 159.766 43.7741 159.802C44.0756 159.839 44.6693 158.815 45.1992 157.107C45.7564 155.371 46.2314 152.958 46.3045 150.263Z" fill="#689399"/>
<path d="M59.9434 197.969C59.9069 198.289 53.905 198.563 46.4964 198.563C39.106 198.563 33.0858 198.298 33.0493 197.969C33.0493 198.006 33.0493 198.061 33.0493 198.097L35.3149 222.084L35.6894 226.104C35.7076 226.816 40.531 227.392 46.4781 227.392C52.4433 227.392 57.2668 226.816 57.2668 226.104L57.3399 225.263C57.3399 225.244 57.3399 225.226 57.3399 225.209L57.5225 223.353L59.916 198.097C59.9434 198.061 59.9434 198.006 59.9434 197.969Z" fill="#DEC7B2"/>
<path d="M58.2718 215.786L58.3813 214.718C58.3448 214.736 58.3082 214.754 58.2534 214.754C54.2157 216.253 50.1962 217.751 46.1675 219.26C43.8472 220.118 41.5268 220.996 39.2247 221.844C38.8867 221.973 38.7405 222.383 39.0146 222.649C41.1614 224.815 44.3678 224.879 47.1542 225.628C48.0311 225.857 48.9081 226.186 49.6572 226.66H51.1919C49.4105 224.924 46.6882 224.513 44.2673 224.001C42.8789 223.7 41.4447 223.325 40.3027 222.466C44.3222 220.968 48.3234 219.487 52.3339 217.98C54.307 217.276 56.2893 216.545 58.2718 215.786Z" fill="#EBDBCD"/>
<path d="M47.7664 206.239C51.658 205.151 55.5679 204.072 59.4595 203.004L59.6422 201.076C51.3383 201.259 43.0343 201.633 34.7305 202.199C34.3011 202.236 33.8717 202.254 33.4424 202.291L33.5337 203.259C40.7141 202.757 47.9035 202.383 55.0837 202.172C56.4631 202.136 57.8517 202.099 59.222 202.062C55.5953 203.059 51.9686 204.045 48.3511 205.06C43.8017 206.329 39.2614 207.683 34.9771 209.683C34.7121 209.811 34.4381 209.93 34.1732 210.058L34.2827 211.09C34.4929 210.98 34.7305 210.88 34.9405 210.771C39.0605 208.806 43.418 207.454 47.7664 206.239Z" fill="#EBDBCD"/>
<path d="M37.8088 214.544C42.3765 214.472 46.8802 213.512 51.329 212.525C53.7772 211.986 56.2437 211.419 58.7194 210.99L58.8107 210.003C52.7541 211.072 46.7979 212.881 40.6682 213.43C38.631 213.612 36.5573 213.639 34.5293 213.467L34.6206 214.453C35.6803 214.527 36.7308 214.562 37.8088 214.544Z" fill="#EBDBCD"/>
<path d="M56.8742 197.951C56.8742 198.198 52.3705 198.398 46.8255 198.398C41.2803 198.398 36.7766 198.198 36.7766 197.951H33.0952C33.0952 197.951 33.0952 197.951 33.0952 197.969C33.1317 198.288 39.1336 198.563 46.5423 198.563C53.9326 198.563 59.9528 198.298 59.9893 197.969C59.9893 197.969 59.9893 197.969 59.9893 197.951H56.8742Z" fill="#E8D4C1"/>
</svg>
