<svg width="282" height="85" viewBox="0 0 282 85" fill="none" xmlns="http://www.w3.org/2000/svg">
<path d="M2 24.5909H16.1364V62H27.2273V24.5909H41.3409V15.4545H2V24.5909ZM51.0909 62L54.1591 52.2273H70.2273L73.2955 62H85.3864L69.6818 15.4545H54.7045L39 62H51.0909ZM56.8409 43.6818L62 27.1818H62.3636L67.5455 43.6818H56.8409ZM90.2386 62H127.057V52.8636H104.466L127.08 21.8636V15.4545H90.2614V24.5909H112.852L90.2386 55.5909V62ZM144.028 62L147.097 52.2273H163.165L166.233 62H178.324L162.619 15.4545H147.642L131.938 62H144.028ZM149.778 43.6818L154.938 27.1818H155.301L160.483 43.6818H149.778ZM183.335 62H194.585V49.3864L199.085 43.7045L210.676 62H224.131L207.335 36.2273L223.835 15.4545H210.585L195.199 35.1364H194.585V15.4545H183.335V62ZM238.341 62L241.409 52.2273H257.477L260.545 62H272.636L256.932 15.4545H241.955L226.25 62H238.341ZM244.091 43.6818L249.25 27.1818H249.614L254.795 43.6818H244.091Z" fill="white"/>
<path d="M7.96839 82H9.74698V78.6825H11.6262C13.8938 78.6825 15.1115 77.321 15.1115 75.4322C15.1115 73.5577 13.9082 72.1818 11.6502 72.1818H7.96839V82ZM9.74698 77.2203V73.668H11.377C12.7097 73.668 13.2994 74.3871 13.2994 75.4322C13.2994 76.4773 12.7097 77.2203 11.3865 77.2203H9.74698ZM19.2249 73.6728H22.2595V82H24.0237V73.6728H27.0584V72.1818H19.2249V73.6728ZM37.4857 73.6728H40.5203V82H42.2845V73.6728H45.3191V72.1818H37.4857V73.6728ZM50.8695 82.1486C52.0249 82.1486 52.7152 81.6069 53.0316 80.9885H53.0892V82H54.7575V77.0717C54.7575 75.1254 53.1707 74.5405 51.766 74.5405C50.2176 74.5405 49.0286 75.2308 48.6451 76.5732L50.2655 76.8033C50.4381 76.2999 50.9271 75.8684 51.7756 75.8684C52.581 75.8684 53.0221 76.2807 53.0221 77.0046V77.0334C53.0221 77.532 52.4995 77.5559 51.2003 77.695C49.7717 77.8484 48.4054 78.275 48.4054 79.9338C48.4054 81.3816 49.4649 82.1486 50.8695 82.1486ZM51.3202 80.8734C50.5963 80.8734 50.0785 80.5426 50.0785 79.905C50.0785 79.2386 50.6586 78.9606 51.4352 78.8503C51.8907 78.788 52.8015 78.6729 53.0269 78.4908V79.3585C53.0269 80.1783 52.3653 80.8734 51.3202 80.8734ZM59.4066 82H65.4519V80.5618H61.7126V80.4995L65.3273 75.8205V74.6364H59.5313V76.0746H63.2035V76.1369L59.4066 80.8974V82ZM72.2021 82.1486C73.3574 82.1486 74.0478 81.6069 74.3642 80.9885H74.4217V82H76.09V77.0717C76.09 75.1254 74.5032 74.5405 73.0985 74.5405C71.5501 74.5405 70.3612 75.2308 69.9776 76.5732L71.598 76.8033C71.7706 76.2999 72.2596 75.8684 73.1081 75.8684C73.9135 75.8684 74.3546 76.2807 74.3546 77.0046V77.0334C74.3546 77.532 73.832 77.5559 72.5328 77.695C71.1042 77.8484 69.7379 78.275 69.7379 79.9338C69.7379 81.3816 70.7974 82.1486 72.2021 82.1486ZM72.6527 80.8734C71.9288 80.8734 71.411 80.5426 71.411 79.905C71.411 79.2386 71.9911 78.9606 72.7678 78.8503C73.2232 78.788 74.1341 78.6729 74.3594 78.4908V79.3585C74.3594 80.1783 73.6978 80.8734 72.6527 80.8734ZM80.835 82H82.5705V79.5263L83.2033 78.8503L85.4565 82H87.5323L84.5121 77.8148L87.3645 74.6364H85.3366L82.6903 77.5943H82.5705V72.1818H80.835V82ZM93.64 82.1486C94.7954 82.1486 95.4858 81.6069 95.8022 80.9885H95.8597V82H97.528V77.0717C97.528 75.1254 95.9412 74.5405 94.5365 74.5405C92.9881 74.5405 91.7991 75.2308 91.4156 76.5732L93.036 76.8033C93.2086 76.2999 93.6976 75.8684 94.5461 75.8684C95.3515 75.8684 95.7926 76.2807 95.7926 77.0046V77.0334C95.7926 77.532 95.27 77.5559 93.9708 77.695C92.5422 77.8484 91.1759 78.275 91.1759 79.9338C91.1759 81.3816 92.2354 82.1486 93.64 82.1486ZM94.0907 80.8734C93.3668 80.8734 92.849 80.5426 92.849 79.905C92.849 79.2386 93.4291 78.9606 94.2057 78.8503C94.6612 78.788 95.572 78.6729 95.7974 78.4908V79.3585C95.7974 80.1783 95.1358 80.8734 94.0907 80.8734ZM108.698 82H115.122V80.5091H110.477V77.8292H114.753V76.3382H110.477V73.6728H115.084V72.1818H108.698V82ZM121.557 72.1818H119.822V82H121.557V72.1818ZM129.602 82.1438C131.318 82.1438 132.497 81.3049 132.804 80.0249L131.184 79.8427C130.949 80.4659 130.374 80.7919 129.626 80.7919C128.504 80.7919 127.761 80.0536 127.747 78.7928H132.876V78.2607C132.876 75.6767 131.323 74.5405 129.511 74.5405C127.401 74.5405 126.025 76.089 126.025 78.3613C126.025 80.6721 127.382 82.1438 129.602 82.1438ZM127.751 77.623C127.804 76.6834 128.499 75.8924 129.535 75.8924C130.532 75.8924 131.203 76.6211 131.213 77.623H127.751ZM137.344 82H139.08V79.5263L139.713 78.8503L141.966 82H144.042L141.021 77.8148L143.874 74.6364H141.846L139.2 77.5943H139.08V72.1818H137.344V82ZM151.707 74.6364H150.255V72.8722H148.519V74.6364H147.474V75.9787H148.519V80.0728C148.51 81.4583 149.517 82.139 150.82 82.1007C151.314 82.0863 151.655 81.9904 151.842 81.9281L151.549 80.5714C151.453 80.5953 151.257 80.6385 151.041 80.6385C150.605 80.6385 150.255 80.4851 150.255 79.7852V75.9787H151.707V74.6364ZM156.159 82H157.894V77.671C157.894 76.7362 158.599 76.0746 159.553 76.0746C159.845 76.0746 160.21 76.1273 160.358 76.1752V74.5788C160.2 74.5501 159.927 74.5309 159.735 74.5309C158.891 74.5309 158.187 75.0103 157.918 75.8636H157.841V74.6364H156.159V82ZM164.511 82H166.247V74.6364H164.511V82ZM165.384 73.5913C165.935 73.5913 166.386 73.1694 166.386 72.6516C166.386 72.1291 165.935 71.7072 165.384 71.7072C164.828 71.7072 164.377 72.1291 164.377 72.6516C164.377 73.1694 164.828 73.5913 165.384 73.5913ZM171.031 82H172.767V79.5263L173.4 78.8503L175.653 82H177.729L174.708 77.8148L177.561 74.6364H175.533L172.887 77.5943H172.767V72.1818H171.031V82ZM187.711 73.6728H190.746V82H192.51V73.6728H195.545V72.1818H187.711V73.6728ZM202.17 82.1438C203.886 82.1438 205.066 81.3049 205.373 80.0249L203.752 79.8427C203.517 80.4659 202.942 80.7919 202.194 80.7919C201.072 80.7919 200.329 80.0536 200.315 78.7928H205.445V78.2607C205.445 75.6767 203.891 74.5405 202.079 74.5405C199.97 74.5405 198.594 76.089 198.594 78.3613C198.594 80.6721 199.951 82.1438 202.17 82.1438ZM200.32 77.623C200.372 76.6834 201.068 75.8924 202.103 75.8924C203.1 75.8924 203.771 76.6211 203.781 77.623H200.32ZM209.913 82H211.648V79.5263L212.281 78.8503L214.534 82H216.61L213.59 77.8148L216.442 74.6364H214.414L211.768 77.5943H211.648V72.1818H209.913V82ZM222.334 77.6854C222.334 76.6211 222.977 76.0075 223.892 76.0075C224.789 76.0075 225.326 76.5971 225.326 77.5799V82H227.061V77.3114C227.066 75.5472 226.059 74.5405 224.539 74.5405C223.437 74.5405 222.679 75.0678 222.344 75.8876H222.257V74.6364H220.599V82H222.334V77.6854ZM235.037 82.1438C237.195 82.1438 238.566 80.6241 238.566 78.3469C238.566 76.065 237.195 74.5405 235.037 74.5405C232.88 74.5405 231.509 76.065 231.509 78.3469C231.509 80.6241 232.88 82.1438 235.037 82.1438ZM235.047 80.7536C233.853 80.7536 233.268 79.6893 233.268 78.3422C233.268 76.995 233.853 75.9164 235.047 75.9164C236.221 75.9164 236.806 76.995 236.806 78.3422C236.806 79.6893 236.221 80.7536 235.047 80.7536ZM244.774 72.1818H243.039V82H244.774V72.1818ZM252.771 82.1438C254.928 82.1438 256.299 80.6241 256.299 78.3469C256.299 76.065 254.928 74.5405 252.771 74.5405C250.613 74.5405 249.242 76.065 249.242 78.3469C249.242 80.6241 250.613 82.1438 252.771 82.1438ZM252.78 80.7536C251.587 80.7536 251.002 79.6893 251.002 78.3422C251.002 76.995 251.587 75.9164 252.78 75.9164C253.955 75.9164 254.54 76.995 254.54 78.3422C254.54 79.6893 253.955 80.7536 252.78 80.7536ZM263.974 84.9148C265.964 84.9148 267.431 84.0039 267.431 82.1199V74.6364H265.72V75.854H265.624C265.36 75.3219 264.809 74.5405 263.509 74.5405C261.808 74.5405 260.47 75.8732 260.47 78.2942C260.47 80.696 261.808 81.8945 263.505 81.8945C264.765 81.8945 265.355 81.2186 265.624 80.6768H265.71V82.0719C265.71 83.1554 264.991 83.6012 264.003 83.6012C262.958 83.6012 262.498 83.1074 262.287 82.676L260.724 83.0547C261.041 84.0854 262.1 84.9148 263.974 84.9148ZM263.989 80.533C262.843 80.533 262.239 79.6413 262.239 78.2846C262.239 76.9471 262.833 75.9643 263.989 75.9643C265.106 75.9643 265.72 76.8896 265.72 78.2846C265.72 79.6893 265.096 80.533 263.989 80.533ZM272.21 82H273.945V74.6364H272.21V82ZM273.082 73.5913C273.633 73.5913 274.084 73.1694 274.084 72.6516C274.084 72.1291 273.633 71.7072 273.082 71.7072C272.526 71.7072 272.075 72.1291 272.075 72.6516C272.075 73.1694 272.526 73.5913 273.082 73.5913Z" fill="#AFACAC"/>
</svg>
