<svg width="63" height="15" viewBox="0 0 63 15" fill="none" xmlns="http://www.w3.org/2000/svg">
<path d="M0.4375 2.81676H3.52983V11H5.95597V2.81676H9.04332V0.818182H0.4375V2.81676ZM11.1761 11L11.8473 8.86222H15.3622L16.0334 11H18.6783L15.2429 0.818182H11.9666L8.53125 11H11.1761ZM12.4339 6.9929L13.5625 3.38352H13.642L14.7756 6.9929H12.4339ZM19.7397 11H27.7937V9.00142H22.8519L27.7987 2.22017V0.818182H19.7447V2.81676H24.6864L19.7397 9.59801V11ZM31.5062 11L32.1774 8.86222H35.6923L36.3635 11H39.0083L35.573 0.818182H32.2967L28.8613 11H31.5062ZM32.764 6.9929L33.8926 3.38352H33.9721L35.1056 6.9929H32.764ZM40.1046 11H42.5655V8.24077L43.5499 6.99787L46.0854 11H49.0286L45.3546 5.36222L48.964 0.818182H46.0655L42.6998 5.12358H42.5655V0.818182H40.1046V11ZM52.1371 11L52.8082 8.86222H56.3232L56.9943 11H59.6392L56.2038 0.818182H52.9276L49.4922 11H52.1371ZM53.3949 6.9929L54.5234 3.38352H54.603L55.7365 6.9929H53.3949Z" fill="white"/>
<path d="M3.14347 14H3.40696V13.5085H3.68537C4.02131 13.5085 4.2017 13.3068 4.2017 13.027C4.2017 12.7493 4.02344 12.5455 3.68892 12.5455H3.14347V14ZM3.40696 13.2919V12.7656H3.64844C3.84588 12.7656 3.93324 12.8722 3.93324 13.027C3.93324 13.1818 3.84588 13.2919 3.64986 13.2919H3.40696ZM5.36665 12.7663H5.81623V14H6.07759V12.7663H6.52717V12.5455H5.36665V12.7663ZM9.18306 12.7663H9.63263V14H9.894V12.7663H10.3436V12.5455H9.18306V12.7663ZM11.7214 14.022C11.8926 14.022 11.9949 13.9418 12.0417 13.8501H12.0502V14H12.2974V13.2699C12.2974 12.9815 12.0623 12.8949 11.8542 12.8949C11.6248 12.8949 11.4487 12.9972 11.3919 13.196L11.6319 13.2301C11.6575 13.1555 11.7299 13.0916 11.8556 13.0916C11.975 13.0916 12.0403 13.1527 12.0403 13.2599V13.2642C12.0403 13.3381 11.9629 13.3416 11.7704 13.3622C11.5588 13.3849 11.3564 13.4482 11.3564 13.6939C11.3564 13.9084 11.5133 14.022 11.7214 14.022ZM11.7882 13.8331C11.6809 13.8331 11.6042 13.7841 11.6042 13.6896C11.6042 13.5909 11.6902 13.5497 11.8052 13.5334C11.8727 13.5241 12.0076 13.5071 12.041 13.4801V13.6087C12.041 13.7301 11.943 13.8331 11.7882 13.8331ZM13.5417 14H14.4373V13.7869H13.8833V13.7777L14.4189 13.0845V12.9091H13.5602V13.1222H14.1042V13.1314L13.5417 13.8366V14ZM15.9929 14.022C16.1641 14.022 16.2663 13.9418 16.3132 13.8501H16.3217V14H16.5689V13.2699C16.5689 12.9815 16.3338 12.8949 16.1257 12.8949C15.8963 12.8949 15.7202 12.9972 15.6634 13.196L15.9034 13.2301C15.929 13.1555 16.0014 13.0916 16.1271 13.0916C16.2464 13.0916 16.3118 13.1527 16.3118 13.2599V13.2642C16.3118 13.3381 16.2344 13.3416 16.0419 13.3622C15.8303 13.3849 15.6278 13.4482 15.6278 13.6939C15.6278 13.9084 15.7848 14.022 15.9929 14.022ZM16.0597 13.8331C15.9524 13.8331 15.8757 13.7841 15.8757 13.6896C15.8757 13.5909 15.9616 13.5497 16.0767 13.5334C16.1442 13.5241 16.2791 13.5071 16.3125 13.4801V13.6087C16.3125 13.7301 16.2145 13.8331 16.0597 13.8331ZM17.8274 14H18.0845V13.6335L18.1783 13.5334L18.5121 14H18.8196L18.3722 13.38L18.7947 12.9091H18.4943L18.1023 13.3473H18.0845V12.5455H17.8274V14ZM20.28 14.022C20.4512 14.022 20.5534 13.9418 20.6003 13.8501H20.6088V14H20.856V13.2699C20.856 12.9815 20.6209 12.8949 20.4128 12.8949C20.1834 12.8949 20.0073 12.9972 19.9505 13.196L20.1905 13.2301C20.2161 13.1555 20.2885 13.0916 20.4142 13.0916C20.5336 13.0916 20.5989 13.1527 20.5989 13.2599V13.2642C20.5989 13.3381 20.5215 13.3416 20.329 13.3622C20.1174 13.3849 19.915 13.4482 19.915 13.6939C19.915 13.9084 20.0719 14.022 20.28 14.022ZM20.3468 13.8331C20.2395 13.8331 20.1628 13.7841 20.1628 13.6896C20.1628 13.5909 20.2488 13.5497 20.3638 13.5334C20.4313 13.5241 20.5662 13.5071 20.5996 13.4801V13.6087C20.5996 13.7301 20.5016 13.8331 20.3468 13.8331ZM23.622 14H24.5737V13.7791H23.8855V13.3821H24.519V13.1612H23.8855V12.7663H24.568V12.5455H23.622V14ZM26.0826 12.5455H25.8255V14H26.0826V12.5455ZM27.8299 14.0213C28.0842 14.0213 28.2589 13.897 28.3043 13.7074L28.0643 13.6804C28.0295 13.7727 27.9442 13.821 27.8335 13.821C27.6673 13.821 27.5572 13.7116 27.555 13.5249H28.315V13.446C28.315 13.0632 28.0849 12.8949 27.8164 12.8949C27.5039 12.8949 27.3001 13.1243 27.3001 13.4609C27.3001 13.8033 27.5011 14.0213 27.8299 14.0213ZM27.5558 13.3516C27.5636 13.2124 27.6665 13.0952 27.82 13.0952C27.9677 13.0952 28.0671 13.2031 28.0685 13.3516H27.5558ZM29.5325 14H29.7896V13.6335L29.8833 13.5334L30.2172 14H30.5247L30.0772 13.38L30.4998 12.9091H30.1994L29.8074 13.3473H29.7896V12.5455H29.5325V14ZM32.2159 12.9091H32.0007V12.6477H31.7436V12.9091H31.5888V13.108H31.7436V13.7145C31.7422 13.9197 31.8913 14.0206 32.0845 14.0149C32.1577 14.0128 32.2081 13.9986 32.2358 13.9893L32.1925 13.7884C32.1783 13.7919 32.1491 13.7983 32.1172 13.7983C32.0526 13.7983 32.0007 13.7756 32.0007 13.6719V13.108H32.2159V12.9091ZM33.4309 14H33.688V13.3587C33.688 13.2202 33.7924 13.1222 33.9338 13.1222C33.9771 13.1222 34.0311 13.13 34.0531 13.1371V12.9006C34.0297 12.8963 33.9892 12.8935 33.9608 12.8935C33.8358 12.8935 33.7314 12.9645 33.6916 13.0909H33.6802V12.9091H33.4309V14ZM35.2239 14H35.481V12.9091H35.2239V14ZM35.3532 12.7543C35.4348 12.7543 35.5016 12.6918 35.5016 12.6151C35.5016 12.5376 35.4348 12.4751 35.3532 12.4751C35.2708 12.4751 35.204 12.5376 35.204 12.6151C35.204 12.6918 35.2708 12.7543 35.3532 12.7543ZM36.7454 14H37.0025V13.6335L37.0962 13.5334L37.43 14H37.7376L37.2901 13.38L37.7127 12.9091H37.4123L37.0202 13.3473H37.0025V12.5455H36.7454V14ZM40.3276 12.7663H40.7772V14H41.0385V12.7663H41.4881V12.5455H40.3276V12.7663ZM43.0252 14.0213C43.2795 14.0213 43.4542 13.897 43.4996 13.7074L43.2596 13.6804C43.2248 13.7727 43.1396 13.821 43.0288 13.821C42.8626 13.821 42.7525 13.7116 42.7504 13.5249H43.5103V13.446C43.5103 13.0632 43.2802 12.8949 43.0117 12.8949C42.6992 12.8949 42.4954 13.1243 42.4954 13.4609C42.4954 13.8033 42.6964 14.0213 43.0252 14.0213ZM42.7511 13.3516C42.7589 13.2124 42.8619 13.0952 43.0153 13.0952C43.163 13.0952 43.2624 13.2031 43.2638 13.3516H42.7511ZM44.7278 14H44.9849V13.6335L45.0787 13.5334L45.4125 14H45.72L45.2725 13.38L45.6951 12.9091H45.3947L45.0027 13.3473H44.9849V12.5455H44.7278V14ZM47.1236 13.3608C47.1236 13.2031 47.2188 13.1122 47.3544 13.1122C47.4872 13.1122 47.5668 13.1996 47.5668 13.3452V14H47.8239V13.3054C47.8246 13.044 47.6754 12.8949 47.4503 12.8949C47.2869 12.8949 47.1747 12.973 47.125 13.0945H47.1122V12.9091H46.8665V14H47.1236V13.3608ZM49.5611 14.0213C49.8807 14.0213 50.0838 13.7962 50.0838 13.4588C50.0838 13.1207 49.8807 12.8949 49.5611 12.8949C49.2415 12.8949 49.0384 13.1207 49.0384 13.4588C49.0384 13.7962 49.2415 14.0213 49.5611 14.0213ZM49.5625 13.8153C49.3857 13.8153 49.299 13.6577 49.299 13.4581C49.299 13.2585 49.3857 13.0987 49.5625 13.0987C49.7365 13.0987 49.8232 13.2585 49.8232 13.4581C49.8232 13.6577 49.7365 13.8153 49.5625 13.8153ZM51.5591 12.5455H51.302V14H51.5591V12.5455ZM53.2994 14.0213C53.619 14.0213 53.8221 13.7962 53.8221 13.4588C53.8221 13.1207 53.619 12.8949 53.2994 12.8949C52.9798 12.8949 52.7766 13.1207 52.7766 13.4588C52.7766 13.7962 52.9798 14.0213 53.2994 14.0213ZM53.3008 13.8153C53.1239 13.8153 53.0373 13.6577 53.0373 13.4581C53.0373 13.2585 53.1239 13.0987 53.3008 13.0987C53.4748 13.0987 53.5614 13.2585 53.5614 13.4581C53.5614 13.6577 53.4748 13.8153 53.3008 13.8153ZM55.5147 14.4318C55.8095 14.4318 56.0268 14.2969 56.0268 14.0178V12.9091H55.7733V13.0895H55.7591C55.72 13.0107 55.6383 12.8949 55.4458 12.8949C55.1937 12.8949 54.9956 13.0923 54.9956 13.451C54.9956 13.8068 55.1937 13.9844 55.4451 13.9844C55.6319 13.9844 55.7193 13.8842 55.7591 13.804H55.7718V14.0107C55.7718 14.1712 55.6653 14.2372 55.519 14.2372C55.3642 14.2372 55.296 14.1641 55.2647 14.1001L55.0332 14.1562C55.0801 14.3089 55.237 14.4318 55.5147 14.4318ZM55.5169 13.7827C55.3471 13.7827 55.2576 13.6506 55.2576 13.4496C55.2576 13.2514 55.3457 13.1058 55.5169 13.1058C55.6824 13.1058 55.7733 13.2429 55.7733 13.4496C55.7733 13.6577 55.6809 13.7827 55.5169 13.7827ZM57.2903 14H57.5474V12.9091H57.2903V14ZM57.4196 12.7543C57.5012 12.7543 57.568 12.6918 57.568 12.6151C57.568 12.5376 57.5012 12.4751 57.4196 12.4751C57.3372 12.4751 57.2704 12.5376 57.2704 12.6151C57.2704 12.6918 57.3372 12.7543 57.4196 12.7543Z" fill="#AFACAC"/>
</svg>
