<svg width="230" height="230" viewBox="0 0 230 230" fill="none" xmlns="http://www.w3.org/2000/svg">
<path d="M217.928 26.9897H110.495V229.643H217.928V26.9897Z" fill="#BFEFEF"/>
<path d="M217.928 26.9897H182.689V229.643H217.928V26.9897Z" fill="#B0E2E1"/>
<path fill-rule="evenodd" clip-rule="evenodd" d="M110.495 27.4058H115.114H213.309H217.928V32.2572V229.643H213.309V32.2572H115.114V229.643H110.495V32.2572V27.4058Z" fill="#5A9DAE"/>
<path d="M64.1689 8L110.495 26.505V229.644H64.1689V8Z" fill="#6AB7BF"/>
<path d="M64.1691 8H59.8137V229.644H64.1691V8Z" fill="#5A9DAE"/>
<path d="M81.3266 118.752C81.3266 116.839 79.8494 115.287 78.0271 115.287C76.2048 115.287 74.7275 116.839 74.7275 118.752V132.614C74.7275 134.528 76.2048 136.079 78.0271 136.079C79.8494 136.079 81.3266 134.528 81.3266 132.614V118.752Z" fill="#5A9DAE"/>
<path d="M228.92 229H1.08008C0.483568 229 0 229.672 0 230.5C0 231.328 0.483568 232 1.08008 232H228.92C229.516 232 230 231.328 230 230.5C230 229.672 229.516 229 228.92 229Z" fill="#2B468B"/>
<path d="M27.5058 200.375C20.097 200.375 14.0952 200.64 14.0586 200.969C14.0952 201.288 20.097 201.562 27.5058 201.562C34.8962 201.562 40.9162 201.298 40.9528 200.969C40.9162 200.631 34.9144 200.375 27.5058 200.375ZM27.8072 201.398C22.2529 201.398 17.7584 201.198 17.7584 200.951C17.7584 200.704 22.2621 200.503 27.8072 200.503C33.3522 200.503 37.8559 200.704 37.8559 200.951C37.8742 201.198 33.3614 201.398 27.8072 201.398Z" fill="#E8D4C1"/>
<path d="M27.5058 200.375C20.0788 200.375 14.0586 200.64 14.0586 200.969C14.0586 201.298 20.0788 201.562 27.5058 201.562C34.9326 201.562 40.9528 201.298 40.9528 200.969C40.9528 200.64 34.9326 200.375 27.5058 200.375ZM27.8072 201.398C22.2529 201.398 17.7584 201.198 17.7584 200.951C17.7584 200.704 22.2621 200.503 27.8072 200.503C33.3522 200.503 37.8559 200.704 37.8559 200.951C37.8742 201.198 33.3614 201.398 27.8072 201.398Z" fill="#E8D4C1"/>
<path d="M27.807 201.398C33.3568 201.398 37.8558 201.198 37.8558 200.951C37.8558 200.703 33.3568 200.503 27.807 200.503C22.2573 200.503 17.7583 200.703 17.7583 200.951C17.7583 201.198 22.2573 201.398 27.807 201.398Z" fill="#BA9C7E"/>
<path d="M35.1971 149.745C32.3196 156.571 30.2733 163.743 29.104 171.072C27.9347 178.4 27.6241 185.837 28.1905 193.239C28.5102 197.378 29.1223 201.508 29.99 205.565C30.1546 206.296 31.2781 205.994 31.1138 205.264C29.5608 198.081 28.9031 190.744 29.0948 183.408C29.2958 176.106 30.3647 168.815 32.274 161.761C33.3427 157.777 34.7039 153.866 36.3117 150.065C36.4396 149.782 36.1838 149.425 35.9006 149.352C35.5717 149.242 35.3068 149.462 35.1971 149.745Z" fill="#4C7378"/>
<path d="M35.572 180.638C32.6944 186.87 30.9861 193.586 30.5203 200.43C30.3924 202.34 30.3558 204.268 30.4288 206.177C30.4654 206.927 31.6256 206.927 31.589 206.177C31.3424 199.498 32.3199 192.818 34.4667 186.496C35.0696 184.713 35.773 182.941 36.5769 181.223C36.8966 180.557 35.8917 179.962 35.572 180.638Z" fill="#4C7378"/>
<path d="M20.928 151.28C22.7642 157.621 24.0705 164.1 25.0389 170.624C26.0072 177.148 26.6284 183.717 27.1308 190.269C27.414 193.988 27.6698 197.716 27.8982 201.453C27.9531 202.203 29.1132 202.203 29.0584 201.453C28.629 194.828 28.1814 188.186 27.5419 181.58C26.8842 174.991 26.0254 168.394 24.7191 161.898C23.9883 158.215 23.1113 154.578 22.0608 150.969C21.8416 150.247 20.7362 150.549 20.928 151.28Z" fill="#4C7378"/>
<path d="M14.1316 170.322C15.7212 171.949 16.6987 174.023 17.5574 176.088C18.5074 178.373 19.3387 180.712 20.0604 183.087C21.4856 187.783 22.5087 192.609 23.0385 197.479C23.34 200.211 23.5044 202.962 23.5227 205.73C23.5227 206.479 24.6829 206.479 24.6829 205.73C24.6463 200.695 24.1257 195.661 23.1664 190.726C22.198 185.801 20.7547 180.94 18.8637 176.28C17.8771 173.849 16.8083 171.401 14.9355 169.509C14.4149 168.961 13.5927 169.783 14.1316 170.322Z" fill="#4C7378"/>
<path d="M22.1431 193.394C21.2843 192.344 20.2154 191.621 19.3202 191.264C18.425 190.908 17.7125 190.908 17.5023 191.137C17.2923 191.366 17.3379 192.069 17.6484 192.918C17.9591 193.768 18.4707 194.793 19.238 195.743C20.0054 196.693 20.9189 197.387 21.7227 197.853C22.5084 198.319 23.1844 198.511 23.3854 198.392C23.6321 198.228 23.7783 197.534 23.6138 196.592C23.4676 195.641 23.0018 194.444 22.1431 193.394Z" fill="#4C7378"/>
<path d="M25.8246 185.518C26.5371 182.018 25.8794 178.966 25.2216 178.838C24.5822 178.729 22.8648 181.323 22.1706 184.768C21.4762 188.213 22.1888 191.301 22.6546 191.411C23.2393 191.558 25.1121 189.017 25.8246 185.518Z" fill="#689399"/>
<path d="M22.6826 191.384C23.4074 190.646 21.6666 187.76 18.7943 184.938C15.9221 182.116 13.006 180.425 12.2813 181.164C11.5565 181.902 13.2972 184.788 16.1695 187.61C19.0417 190.432 21.9578 192.122 22.6826 191.384Z" fill="#4C7378"/>
<path d="M27.9991 195.56C28.337 194.116 28.5197 192.701 28.5928 191.402C28.6659 190.114 28.6294 188.935 28.5015 187.975C28.2731 186.012 27.8072 184.833 27.4875 184.833C27.1678 184.833 26.6836 185.975 26.1445 187.783C25.8797 188.68 25.569 189.748 25.2859 190.908C24.9845 192.088 24.6646 193.357 24.3541 194.711C24.0343 196.053 23.7603 197.35 23.5319 198.53C23.3035 199.709 23.1025 200.814 22.9381 201.747C22.6367 203.6 22.5636 204.852 22.7736 204.962C23.0386 205.09 23.9886 204.231 25.0575 202.587C25.5964 201.764 26.1445 200.732 26.6653 199.553C27.1952 198.356 27.661 197.004 27.9991 195.56Z" fill="#57848A"/>
<path d="M35.6085 197.021C36.7139 195.057 37.5361 193.165 38.002 191.703C38.4862 190.241 38.6049 189.219 38.3217 189.027C38.0568 188.843 37.1432 189.364 36.0014 190.416C34.8594 191.484 33.48 193.129 32.3381 195.148C31.1963 197.185 30.5203 199.223 30.2096 200.759C30.0453 201.527 29.9812 202.166 29.9812 202.632C29.9812 202.779 29.9264 202.969 30.0361 203.208C30.0543 203.263 30.0909 203.317 30.1274 203.353C30.164 203.408 30.2553 203.463 30.3101 203.482C30.438 203.518 30.5203 203.482 30.575 203.445C30.6846 203.372 30.7577 203.243 30.7212 203.161C30.6846 203.071 30.6298 203.106 30.6116 203.106C30.5933 203.125 30.575 203.125 30.5567 203.143C30.5385 203.161 30.575 203.143 30.5567 203.143C30.5567 203.143 30.5385 203.143 30.5203 203.125C30.5019 203.106 30.4837 203.071 30.4837 203.071C30.4837 203.071 30.4837 203.106 30.4837 203.143C30.4837 203.143 30.4837 203.143 30.4837 203.161L30.5567 203.106C30.5567 203.106 30.5567 203.106 30.575 203.106C30.6116 203.106 30.6846 203.088 30.8217 203.125H30.8582H30.8764H30.8948C30.913 203.125 30.9313 203.125 30.9496 203.106C31.3242 202.824 31.7718 202.375 32.2742 201.782C33.2883 200.649 34.5032 198.968 35.6085 197.021Z" fill="#57848A"/>
<path d="M32.6488 188.159C32.3656 185.673 31.7352 183.498 31.1141 181.945C30.4929 180.41 29.8808 179.478 29.5428 179.533C29.2231 179.587 28.9216 180.638 28.7572 182.283C28.6109 183.927 28.6109 186.176 28.9034 188.57C29.0495 189.785 29.2413 190.908 29.4789 191.941C29.7073 192.973 29.9631 193.869 30.1366 194.619C30.3376 195.367 30.4745 195.98 30.6025 196.437C30.7121 196.884 30.8126 197.186 30.9405 197.205C31.0867 197.241 31.3515 197.058 31.6347 196.629C31.918 196.2 32.2286 195.505 32.4386 194.646C32.6488 193.769 32.7585 192.755 32.7949 191.668C32.8224 190.608 32.7857 189.411 32.6488 188.159Z" fill="#4C7378"/>
<path d="M17.201 176.18C15.7577 174.791 14.1864 173.821 12.9349 173.265C11.6834 172.707 10.7698 172.589 10.5597 172.853C10.3587 173.1 10.6876 173.958 11.4002 175.065C12.1128 176.17 13.2181 177.55 14.5975 178.866C15.9861 180.191 17.4386 181.186 18.5988 181.844C19.759 182.503 20.6359 182.795 20.8095 182.63C21.0379 182.43 20.8643 181.525 20.2704 180.291C19.6949 179.085 18.6627 177.568 17.201 176.18Z" fill="#689399"/>
<path d="M15.0359 166.695C13.3185 163.643 10.8064 161.87 10.2307 162.226C9.67359 162.564 10.1028 165.571 11.7655 168.531C13.4281 171.492 15.9038 173.337 16.3514 173.118C16.8995 172.835 16.7533 169.746 15.0359 166.695Z" fill="#4C7378"/>
<path d="M21.4124 172.534C21.111 170.459 20.3802 168.659 19.631 167.481C18.8819 166.284 18.1511 165.681 17.8496 165.799C17.5482 165.909 17.3838 166.813 17.3656 168.139C17.3472 169.464 17.4386 171.19 17.7035 173.063C17.9685 174.936 18.3978 176.617 18.7906 177.888C19.2017 179.158 19.6127 179.999 19.8411 179.999C20.1426 180.017 20.6633 179.231 21.0744 177.888C21.4855 176.535 21.7139 174.607 21.4124 172.534Z" fill="#57848A"/>
<path d="M40.5416 184.001C42.2591 182.822 43.7024 181.57 44.6798 180.519C45.6665 179.487 46.1963 178.664 46.0228 178.354C45.8584 178.07 44.8808 178.088 43.4649 178.482C42.0581 178.874 40.2127 179.66 38.4132 180.894C36.6134 182.128 35.2523 183.607 34.3753 184.787C33.5166 185.984 33.1604 186.897 33.3065 187.089C33.5075 187.318 34.4667 187.126 35.7913 186.587C37.1251 186.074 38.8242 185.179 40.5416 184.001Z" fill="#689399"/>
<path d="M41.5738 174.873C42.7705 172.351 43.4466 169.911 43.7206 168.065C43.9855 166.229 43.885 165.032 43.5744 164.922C43.2639 164.812 42.4874 165.726 41.5007 167.224C40.5141 168.741 39.3357 170.853 38.1937 173.247C37.0519 175.64 36.1932 177.906 35.6541 179.642C35.1152 181.36 34.9051 182.54 35.1152 182.675C35.3618 182.84 36.3667 182.156 37.6366 180.802C38.8789 179.442 40.3771 177.395 41.5738 174.873Z" fill="#4C7378"/>
<path d="M38.2718 175.432C39.0768 171.009 38.9046 167.272 37.8871 167.087C36.8696 166.902 35.3921 170.338 34.5869 174.762C33.7818 179.185 33.954 182.921 34.9716 183.107C35.9891 183.292 37.4666 179.856 38.2718 175.432Z" fill="#689399"/>
<path d="M39.4268 145.633C40.4408 143.468 41.1625 141.421 41.5736 139.849C41.9848 138.278 42.0578 137.208 41.7746 137.026C41.4914 136.861 40.5962 137.492 39.4908 138.725C38.3855 139.959 37.0974 141.795 36.0468 144.034C34.9963 146.264 34.4391 148.448 34.2107 150.092C33.9823 151.737 34.0645 152.824 34.302 152.916C34.5852 153.025 35.3709 152.276 36.3391 150.969C37.2709 149.654 38.4129 147.799 39.4268 145.633Z" fill="#689399"/>
<path d="M36.5587 145.633C36.7048 143.385 36.6318 141.329 36.4308 139.794C36.2298 138.277 35.91 137.272 35.5903 137.227C35.2706 137.172 34.6585 138.031 34.0922 139.493C33.5165 140.955 32.9868 143.029 32.8223 145.368C32.6579 147.707 32.9684 149.854 33.3613 151.371C33.7541 152.888 34.2565 153.82 34.5032 153.82C34.8046 153.82 35.2522 152.87 35.6451 151.389C36.0379 149.9 36.4124 147.89 36.5587 145.633Z" fill="#4C7378"/>
<path d="M39.2535 156.37C39.9479 155.264 40.5052 154.14 40.9344 153.098C41.3455 152.048 41.647 151.061 41.8297 150.202C42.186 148.502 42.0946 147.378 41.7931 147.25C41.4917 147.122 40.706 147.908 39.6647 149.215C39.1622 149.855 38.5775 150.64 37.9654 151.518C37.3625 152.395 36.7139 153.336 36.0746 154.378C35.435 155.392 34.8413 156.397 34.3205 157.329C33.7998 158.261 33.3522 159.111 32.9959 159.869C32.2833 161.368 31.9088 162.428 32.1007 162.583C32.3107 162.784 33.3705 162.373 34.759 161.331C35.4533 160.81 36.2207 160.134 36.988 159.293C37.7919 158.462 38.5593 157.475 39.2535 156.37Z" fill="#689399"/>
<path d="M30.8398 154.926C30.6297 153.802 30.4105 152.751 30.2003 151.801C30.109 151.317 29.9903 150.869 29.8988 150.439C29.844 150.229 29.7893 150.028 29.7527 149.818C29.7161 149.617 29.6614 149.425 29.6248 149.242C29.2869 147.78 29.0219 146.757 28.6565 146.702C28.3551 146.647 27.6881 147.524 27.2497 149.187C27.1949 149.389 27.14 149.617 27.0852 149.827C27.0304 150.056 27.0121 150.293 26.9755 150.522C26.9025 151.024 26.866 151.536 26.8478 152.075C26.8294 153.162 26.9208 154.359 27.1309 155.575C27.5968 158.005 28.4556 160.006 29.168 161.413C29.8988 162.82 30.5292 163.679 30.7576 163.643C31.059 163.588 31.3513 162.556 31.3971 160.929C31.4884 159.339 31.2692 157.174 30.8398 154.926Z" fill="#4C7378"/>
<path d="M36.2206 167.087C37.5451 165.269 38.413 163.387 38.8606 161.943C39.3082 160.5 39.3631 159.476 39.0616 159.321C38.7784 159.156 37.938 159.695 36.8509 160.701C35.7638 161.696 34.4392 163.168 33.1693 164.895C31.8996 166.621 30.9586 168.376 30.3649 169.738C29.762 171.099 29.5244 172.058 29.7071 172.222C29.9355 172.424 30.8856 172.058 32.1188 171.209C33.3795 170.322 34.896 168.905 36.2206 167.087Z" fill="#57848A"/>
<path d="M21.6956 147.78C20.6449 145.569 19.2837 143.833 18.1602 142.691C17.0366 141.549 16.1412 140.991 15.8581 141.156C15.5749 141.32 15.6754 142.371 16.123 143.888C16.5706 145.405 17.338 147.351 18.2973 149.37C18.7813 150.385 19.2655 151.317 19.7041 152.175C19.9141 152.605 20.1517 153.016 20.3618 153.391C20.5718 153.765 20.7728 154.14 20.9556 154.46C21.7046 155.785 22.2619 156.653 22.5085 156.625C22.7917 156.589 23.1663 155.574 23.1663 153.911C23.1663 153.5 23.148 153.034 23.075 152.568C23.0201 152.084 22.9288 151.581 22.81 151.051C22.609 150.01 22.2162 148.886 21.6956 147.78Z" fill="#4C7378"/>
<path d="M21.6134 155.903C18.9915 152.595 15.8308 150.832 15.3283 151.28C14.8441 151.709 16.1322 155.026 18.6809 158.242C21.2389 161.459 24.3083 163.35 24.7011 163.067C25.2035 162.729 24.2352 159.211 21.6134 155.903Z" fill="#4C7378"/>
<path d="M23.0386 163.314C22.0245 162.245 20.9101 161.441 19.9873 160.92C19.0555 160.399 18.3247 160.207 18.0599 160.399C17.8132 160.6 17.8132 161.386 18.1695 162.418C18.5257 163.451 19.2383 164.758 20.3436 165.9C21.449 167.042 22.7371 167.773 23.7694 168.166C24.8017 168.541 25.5873 168.576 25.7517 168.394C25.9527 168.166 25.7699 167.407 25.3041 166.466C24.8199 165.516 24.0708 164.374 23.0386 163.314Z" fill="#689399"/>
<path d="M25.0756 173.265C23.8606 171.053 22.5909 169.108 21.5768 167.728C20.5629 166.348 19.7588 165.553 19.4848 165.635C19.2382 165.727 19.2748 166.796 19.6858 168.422C20.0969 170.048 20.9008 172.242 22.1523 174.517C23.4039 176.782 24.8838 178.675 26.0987 179.962C27.3138 181.251 28.2638 181.945 28.4373 181.854C28.6657 181.726 28.4373 180.693 27.8436 179.122C27.2315 177.55 26.3089 175.485 25.0756 173.265Z" fill="#689399"/>
<path d="M30.712 176.317C30.7302 174.654 30.3374 173.173 29.8532 172.159C29.369 171.145 28.8027 170.569 28.4647 170.624C28.145 170.679 27.7887 171.374 27.4964 172.397C27.2132 173.429 26.9757 174.772 26.9574 176.253C26.9391 177.732 27.1583 179.094 27.4233 180.126C27.6882 181.159 28.0262 181.882 28.2821 181.909C28.5835 181.964 29.159 181.425 29.6889 180.428C30.237 179.442 30.7028 177.979 30.712 176.317Z" fill="#4C7378"/>
<path d="M32.1826 182.246C32.9501 180.565 33.1967 178.874 33.1693 177.622C33.1144 176.372 32.7948 175.585 32.4751 175.512C32.1554 175.439 31.5615 176.033 30.8855 176.974C30.2095 177.924 29.4604 179.203 28.7753 180.692C28.0993 182.173 27.6517 183.607 27.3959 184.75C27.1309 185.892 27.0762 186.732 27.268 186.879C27.4963 187.062 28.3185 186.787 29.3051 186.002C30.2734 185.234 31.3971 183.946 32.1826 182.246Z" fill="#689399"/>
<path d="M27.3045 153.263C27.3776 150.567 27.0579 148.137 26.6103 146.401C26.1809 144.646 25.642 143.614 25.304 143.632C24.9843 143.65 24.5731 144.738 24.2351 146.474C23.8971 148.21 23.6139 150.567 23.5408 153.172C23.4678 155.776 23.6687 158.151 23.9154 159.906C24.1804 161.66 24.5183 162.766 24.7741 162.802C25.0756 162.839 25.6693 161.815 26.1992 160.107C26.7564 158.371 27.2314 155.958 27.3045 153.263Z" fill="#689399"/>
<path d="M40.9434 200.969C40.9069 201.289 34.905 201.563 27.4964 201.563C20.106 201.563 14.0858 201.298 14.0493 200.969C14.0493 201.006 14.0493 201.061 14.0493 201.097L16.3149 225.084L16.6894 229.104C16.7076 229.816 21.531 230.392 27.4781 230.392C33.4433 230.392 38.2668 229.816 38.2668 229.104L38.3399 228.263C38.3399 228.244 38.3399 228.226 38.3399 228.209L38.5225 226.353L40.916 201.097C40.9434 201.061 40.9434 201.006 40.9434 200.969Z" fill="#DEC7B2"/>
<path d="M39.2718 218.786L39.3813 217.718C39.3448 217.736 39.3082 217.754 39.2534 217.754C35.2157 219.253 31.1962 220.751 27.1675 222.26C24.8472 223.118 22.5268 223.996 20.2247 224.844C19.8867 224.973 19.7405 225.383 20.0146 225.649C22.1614 227.815 25.3678 227.879 28.1542 228.628C29.0311 228.857 29.9081 229.186 30.6572 229.66H32.1919C30.4105 227.924 27.6882 227.513 25.2673 227.001C23.8789 226.7 22.4447 226.325 21.3027 225.466C25.3222 223.968 29.3234 222.487 33.3339 220.98C35.307 220.276 37.2893 219.545 39.2718 218.786Z" fill="#EBDBCD"/>
<path d="M28.7664 209.239C32.658 208.151 36.5679 207.072 40.4595 206.004L40.6422 204.076C32.3383 204.259 24.0343 204.633 15.7305 205.199C15.3011 205.236 14.8717 205.254 14.4424 205.291L14.5337 206.259C21.7141 205.757 28.9035 205.383 36.0837 205.172C37.4631 205.136 38.8517 205.099 40.222 205.062C36.5953 206.059 32.9686 207.045 29.3511 208.06C24.8017 209.329 20.2614 210.683 15.9771 212.683C15.7121 212.811 15.4381 212.93 15.1732 213.058L15.2827 214.09C15.4929 213.98 15.7305 213.88 15.9405 213.771C20.0605 211.806 24.418 210.454 28.7664 209.239Z" fill="#EBDBCD"/>
<path d="M18.8088 217.544C23.3765 217.472 27.8802 216.512 32.329 215.525C34.7772 214.986 37.2437 214.419 39.7194 213.99L39.8107 213.003C33.7541 214.072 27.7979 215.881 21.6682 216.43C19.631 216.612 17.5573 216.639 15.5293 216.467L15.6206 217.453C16.6803 217.527 17.7308 217.562 18.8088 217.544Z" fill="#EBDBCD"/>
<path d="M37.8742 200.951C37.8742 201.198 33.3705 201.398 27.8255 201.398C22.2803 201.398 17.7766 201.198 17.7766 200.951H14.0952C14.0952 200.951 14.0952 200.951 14.0952 200.969C14.1317 201.288 20.1336 201.563 27.5423 201.563C34.9326 201.563 40.9528 201.298 40.9893 200.969C40.9893 200.969 40.9893 200.969 40.9893 200.951H37.8742Z" fill="#E8D4C1"/>
</svg>
